<svg width="1920" height="80" viewBox="0 0 1920 80" fill="none" xmlns="http://www.w3.org/2000/svg">
<path d="M0 5.6C0 5.6 6.75334 16.5803 35.6267 19.4901C64.5 22.4 142.293 20.24 213.333 15.8911C284.373 11.5421 355.627 2.24446 426.667 0.369933C497.707 -1.5046 568.96 4.04402 640 10.2675C711.04 16.4909 782.293 23.5391 853.333 23.9141C924.373 24.289 995.627 17.9905 1066.67 14.5414C1137.71 11.0173 1208.96 10.2675 1280 11.992C1351.04 13.7916 1422.29 17.9905 1493.33 21.1397C1564.37 24.289 1635.63 26.2385 1706.67 23.5391C1777.71 20.7648 1848.96 13.2667 1884.37 9.51765L1920 5.6V80H1884.37C1848.96 80 1777.71 80 1706.67 80C1635.63 80 1564.37 80 1493.33 80C1422.29 80 1351.04 80 1280 80C1208.96 80 1137.71 80 1066.67 80C995.627 80 924.373 80 853.333 80C782.293 80 711.04 80 640 80C568.96 80 497.707 80 426.667 80C355.627 80 284.373 80 213.333 80C142.293 80 71.04 80 35.6267 80H0V5.6Z" fill="white"/>
</svg>
