<svg width="1920" height="1030" viewBox="0 0 1920 1030" fill="none" xmlns="http://www.w3.org/2000/svg">
<mask id="mask0_68_494" style="mask-type:alpha" maskUnits="userSpaceOnUse" x="0" y="0" width="1920" height="1030">
<rect width="1920" height="1030" fill="#C4C4C4"/>
</mask>
<g mask="url(#mask0_68_494)">
<path d="M1919.5 1030L1920 -70H0V1030H1919.5Z" fill="url(#paint0_linear_68_494)"/>
<g opacity="0.3">
<path opacity="0.3" d="M1617.62 631.984C1617.32 631.977 1617.03 631.902 1616.77 631.765L1281.57 438.241C1275.4 434.676 1272.03 429.85 1272.03 424.531C1272.03 419.212 1275.4 414.441 1281.57 410.822L1499.87 284.694C1504.92 281.787 1507.68 278.003 1507.68 274.028C1507.68 270.052 1504.94 266.268 1499.87 263.362L1130.23 50.2054C1123.97 47.0287 1117.05 45.373 1110.03 45.373C1103.01 45.373 1096.1 47.0287 1089.84 50.2054L965.837 121.769C960.792 124.676 958.022 128.46 958.022 132.435C958.022 136.411 960.764 140.195 965.837 143.101L1150.14 249.488C1156.31 253.052 1159.68 257.905 1159.68 263.197C1159.68 268.489 1156.31 273.287 1150.14 276.907L874.606 435.938C862.514 442.902 842.852 442.902 830.732 435.938L647.804 330.209C647.579 330.113 647.376 329.97 647.211 329.79C647.045 329.609 646.92 329.396 646.843 329.163C646.766 328.931 646.739 328.685 646.765 328.441C646.79 328.198 646.867 327.962 646.991 327.751C647.114 327.539 647.281 327.356 647.481 327.214C647.68 327.072 647.907 326.974 648.148 326.927C648.388 326.879 648.636 326.883 648.874 326.939C649.113 326.994 649.337 327.1 649.531 327.248L832.624 432.867C838.882 436.043 845.802 437.699 852.82 437.699C859.838 437.699 866.758 436.043 873.016 432.867L1148.57 273.836C1153.62 270.929 1156.39 267.118 1156.39 263.17C1156.39 259.221 1153.65 255.41 1148.57 252.504L964.247 146.063C958.105 142.526 954.704 137.672 954.704 132.353C954.704 127.034 958.077 122.263 964.247 118.644L1088.22 47.0797C1100.31 40.1152 1119.97 40.1152 1132.09 47.0797L1501.71 260.62C1507.88 264.157 1511.28 269.01 1511.28 274.329C1511.28 279.649 1507.88 284.42 1501.71 288.039L1283.41 414.167C1278.36 417.101 1275.59 420.884 1275.59 424.833C1275.59 428.781 1278.33 432.592 1283.41 435.499L1618.63 629.023C1618.95 629.217 1619.21 629.511 1619.35 629.861C1619.49 630.21 1619.51 630.596 1619.41 630.959C1619.31 631.323 1619.09 631.643 1618.8 631.873C1618.5 632.103 1618.13 632.228 1617.75 632.231L1617.62 631.984Z" fill="white"/>
<path opacity="0.3" d="M1537.77 486.882C1537.46 486.881 1537.17 486.799 1536.91 486.645C1536.65 486.491 1536.43 486.27 1536.29 486.005C1536.17 485.813 1536.09 485.6 1536.06 485.378C1536.02 485.156 1536.04 484.929 1536.09 484.711C1536.15 484.494 1536.25 484.29 1536.38 484.112C1536.52 483.934 1536.69 483.785 1536.89 483.674L1862.27 295.826C1869.24 291.823 1873.05 286.558 1873.05 281.02C1873.05 275.481 1869.24 270.216 1862.27 266.213L1550.22 86.0422C1535.11 77.3503 1510.56 77.3503 1495.37 86.0422L1425.72 126.321C1425.33 126.55 1424.85 126.612 1424.41 126.493C1423.97 126.375 1423.59 126.086 1423.36 125.69C1423.25 125.496 1423.18 125.281 1423.15 125.059C1423.12 124.836 1423.14 124.61 1423.19 124.394C1423.25 124.177 1423.35 123.974 1423.49 123.796C1423.63 123.619 1423.8 123.471 1423.99 123.36L1493.75 83.0809C1509.8 73.8407 1535.87 73.8407 1551.92 83.0809L1864 263.252C1872.06 267.886 1876.5 274.22 1876.5 281.02C1876.5 287.819 1872.06 294.153 1864 298.815L1538.62 486.636C1538.36 486.793 1538.07 486.878 1537.77 486.882V486.882Z" fill="white"/>
<path opacity="0.3" d="M762.946 1006.64C754.352 1006.8 745.858 1004.78 738.267 1000.74L292.422 743.388C285.539 739.412 281.755 733.983 281.755 728.143C281.755 722.303 285.539 716.874 292.422 712.898L444.474 625.157C458.185 617.288 480.122 617.288 493.833 625.157L775.039 787.478C787.708 794.799 808.302 794.799 820.97 787.478L1200.37 568.454C1206.16 565.109 1209.34 560.749 1209.34 556.17C1209.34 551.591 1206.16 547.259 1200.37 543.914L1088.27 479.178C1075.61 471.884 1055.01 471.884 1042.34 479.178L822.753 605.991C809.042 613.86 787.105 613.86 773.394 605.991L462.024 426.231C456.362 422.987 449.962 421.251 443.437 421.188C436.912 421.126 430.481 422.74 424.758 425.875L92.9586 608.678C92.5622 608.9 92.094 608.955 91.6569 608.832C91.2198 608.708 90.8496 608.416 90.6278 608.02C90.406 607.624 90.3507 607.155 90.4741 606.718C90.5975 606.281 90.8895 605.911 91.2859 605.689L423.085 422.859C429.328 419.444 436.343 417.688 443.458 417.76C450.574 417.832 457.552 419.729 463.724 423.27L775.039 603.03C787.681 610.323 808.302 610.323 820.97 603.03L1040.7 476.134C1054.41 468.265 1076.35 468.265 1090.06 476.134L1202.18 540.843C1209.07 544.819 1212.88 550.248 1212.88 556.088C1212.88 561.928 1209.07 567.357 1202.18 571.333L822.753 790.467C809.042 798.309 787.105 798.309 773.394 790.467L492.16 628.091C479.491 620.797 458.898 620.77 446.229 628.091L294.177 715.832C288.391 719.177 285.21 723.537 285.21 728.116C285.21 732.695 288.391 737.027 294.177 740.372L739.967 997.728C752.636 1005.05 773.257 1005.05 785.898 997.728L1362.76 664.75C1363.16 664.529 1363.63 664.471 1364.07 664.588C1364.51 664.706 1364.89 664.99 1365.12 665.381C1365.23 665.575 1365.31 665.79 1365.34 666.012C1365.37 666.235 1365.35 666.461 1365.29 666.677C1365.23 666.894 1365.13 667.097 1364.99 667.275C1364.86 667.452 1364.69 667.6 1364.49 667.711L787.626 1000.74C780.035 1004.78 771.54 1006.8 762.946 1006.64V1006.64Z" fill="white"/>
<path opacity="0.3" d="M1189.49 879.195C1189.19 879.2 1188.89 879.124 1188.64 878.976L1092.66 823.644C1092.28 823.405 1092.01 823.03 1091.91 822.597C1091.8 822.164 1091.87 821.706 1092.09 821.32C1092.31 820.934 1092.68 820.649 1093.11 820.525C1093.53 820.401 1093.99 820.448 1094.39 820.655L1190.36 876.014C1190.56 876.128 1190.73 876.278 1190.86 876.456C1191 876.635 1191.09 876.838 1191.15 877.054C1191.21 877.271 1191.22 877.496 1191.19 877.718C1191.16 877.939 1191.08 878.152 1190.97 878.345C1190.82 878.607 1190.6 878.824 1190.34 878.973C1190.08 879.123 1189.79 879.199 1189.49 879.195Z" fill="white"/>
<path opacity="0.3" d="M927.393 270.491C927.093 270.495 926.797 270.418 926.536 270.269C926.276 270.119 926.06 269.902 925.912 269.641C925.684 269.244 925.622 268.773 925.74 268.331C925.858 267.889 926.147 267.512 926.543 267.283L1052.68 194.403C1053.08 194.174 1053.55 194.112 1053.99 194.23C1054.43 194.348 1054.81 194.637 1055.04 195.033C1055.15 195.227 1055.23 195.442 1055.25 195.664C1055.28 195.887 1055.27 196.113 1055.21 196.33C1055.15 196.547 1055.05 196.749 1054.91 196.927C1054.78 197.104 1054.6 197.253 1054.41 197.364L928.133 270.271C927.905 270.395 927.652 270.47 927.393 270.491Z" fill="white"/>
<path opacity="0.3" d="M1871.65 485.347C1871.35 485.342 1871.06 485.257 1870.8 485.1L1705.17 389.49C1704.95 389.393 1704.75 389.25 1704.58 389.07C1704.42 388.89 1704.29 388.676 1704.21 388.444C1704.14 388.211 1704.11 387.965 1704.14 387.721C1704.16 387.478 1704.24 387.242 1704.36 387.031C1704.48 386.819 1704.65 386.636 1704.85 386.494C1705.05 386.352 1705.28 386.254 1705.52 386.207C1705.76 386.159 1706.01 386.163 1706.24 386.219C1706.48 386.274 1706.71 386.38 1706.9 386.528L1872.53 482.139C1872.72 482.249 1872.89 482.398 1873.03 482.576C1873.17 482.754 1873.27 482.958 1873.32 483.176C1873.38 483.393 1873.39 483.62 1873.36 483.842C1873.33 484.065 1873.25 484.278 1873.13 484.469C1872.98 484.734 1872.77 484.955 1872.51 485.109C1872.25 485.264 1871.95 485.345 1871.65 485.347Z" fill="white"/>
<path opacity="0.3" d="M928.599 302.489H871.81C871.351 302.489 870.912 302.307 870.588 301.983C870.264 301.659 870.082 301.219 870.082 300.761V267.858C870.082 267.4 870.264 266.961 870.588 266.637C870.912 266.313 871.351 266.131 871.81 266.131H928.599C929.058 266.131 929.497 266.313 929.821 266.637C930.145 266.961 930.327 267.4 930.327 267.858V300.761C930.321 301.211 930.144 301.642 929.833 301.968C929.507 302.298 929.063 302.485 928.599 302.489ZM873.455 299.034H926.954V269.641H873.51L873.455 299.034Z" fill="white"/>
<path opacity="0.3" d="M1608.38 230.596H1551.5C1551.05 230.589 1550.62 230.403 1550.3 230.08C1549.98 229.757 1549.8 229.322 1549.8 228.868V195.965C1549.8 195.512 1549.98 195.077 1550.3 194.754C1550.62 194.43 1551.05 194.245 1551.5 194.238H1608.38C1608.84 194.238 1609.27 194.42 1609.6 194.744C1609.92 195.068 1610.1 195.507 1610.1 195.965V228.868C1610.1 229.327 1609.92 229.766 1609.6 230.09C1609.27 230.414 1608.84 230.596 1608.38 230.596V230.596ZM1553.23 227.141H1606.68V197.748H1553.23V227.141Z" fill="white"/>
<path opacity="0.3" d="M776.52 930.798C770.159 930.802 763.831 929.878 757.736 928.056C742.243 923.449 733.057 914.703 733.057 904.64C733.057 894.577 742.298 885.83 757.736 881.224C769.989 877.55 783.051 877.55 795.304 881.224C810.77 885.83 819.983 894.577 819.983 904.64C819.983 914.703 810.715 923.449 795.304 928.056C789.209 929.876 782.881 930.8 776.52 930.798V930.798ZM776.52 881.909C770.492 881.902 764.496 882.78 758.724 884.514C744.766 888.655 736.43 896.167 736.43 904.64C736.43 913.112 744.656 920.625 758.724 924.766C770.353 928.231 782.742 928.231 794.371 924.766C808.329 920.625 816.638 913.085 816.638 904.64C816.638 896.195 808.411 888.655 794.371 884.514C788.579 882.786 782.565 881.917 776.52 881.937V881.909Z" fill="white"/>
<path opacity="0.3" d="M670.262 869.461C663.91 869.463 657.591 868.539 651.505 866.719C636.012 862.113 626.826 853.366 626.826 843.303C626.826 833.24 636.067 824.494 651.505 819.887C663.749 816.213 676.802 816.213 689.045 819.887C704.539 824.494 713.725 833.24 713.725 843.303C713.725 853.366 704.484 862.113 689.045 866.719C682.951 868.541 676.623 869.465 670.262 869.461ZM670.262 820.573C664.235 820.581 658.241 821.458 652.465 823.178C638.535 827.318 630.199 834.858 630.199 843.303C630.199 851.748 638.425 859.289 652.465 863.429C664.095 866.894 676.483 866.894 688.113 863.429C702.071 859.289 710.407 851.748 710.407 843.303C710.407 834.858 702.18 827.318 688.113 823.178C682.32 821.449 676.307 820.572 670.262 820.573V820.573Z" fill="white"/>
<path opacity="0.3" d="M564.031 808.125C557.67 808.127 551.343 807.203 545.248 805.383C529.755 800.776 520.568 792.03 520.568 781.967C520.568 771.904 529.809 763.157 545.248 758.551C557.502 754.89 570.56 754.89 582.815 758.551C598.308 763.157 607.494 771.904 607.494 781.967C607.494 792.03 598.253 800.776 582.815 805.383C576.72 807.203 570.392 808.127 564.031 808.125V808.125ZM564.031 759.236C558.005 759.243 552.011 760.12 546.235 761.841C532.277 765.981 523.941 773.522 523.941 781.967C523.941 790.412 532.168 797.952 546.235 802.092C557.861 805.585 570.257 805.585 581.883 802.092C595.84 797.952 604.176 790.439 604.176 781.967C604.176 773.494 595.95 765.981 581.883 761.841C576.089 760.115 570.076 759.237 564.031 759.236V759.236Z" fill="white"/>
<path opacity="0.3" d="M457.801 746.788C451.44 746.792 445.112 745.868 439.017 744.046C423.524 739.44 414.338 730.693 414.338 720.63C414.338 710.567 423.579 701.821 439.017 697.214C451.265 693.57 464.309 693.57 476.557 697.214C492.05 701.821 501.236 710.567 501.236 720.63C501.236 730.693 491.995 739.44 476.557 744.046C470.471 745.866 464.153 746.79 457.801 746.788V746.788ZM457.801 697.9C451.774 697.904 445.78 698.782 440.004 700.505C426.047 704.645 417.711 712.185 417.711 720.63C417.711 729.075 425.937 736.616 440.004 740.783C451.634 744.249 464.022 744.249 475.652 740.783C489.61 736.616 497.918 729.103 497.918 720.63C497.918 712.158 489.692 704.645 475.652 700.505C469.858 698.78 463.846 697.903 457.801 697.9Z" fill="white"/>
<path opacity="0.3" d="M487.361 705.303C487.056 705.298 486.756 705.215 486.492 705.061C486.228 704.908 486.008 704.689 485.853 704.426C485.74 704.231 485.667 704.017 485.638 703.794C485.609 703.572 485.624 703.345 485.683 703.129C485.741 702.912 485.842 702.709 485.98 702.532C486.117 702.354 486.288 702.206 486.484 702.095L555.969 661.981C556.164 661.832 556.388 661.726 556.627 661.671C556.865 661.616 557.113 661.612 557.353 661.659C557.593 661.707 557.821 661.805 558.02 661.947C558.22 662.089 558.387 662.272 558.51 662.483C558.633 662.695 558.71 662.93 558.736 663.174C558.761 663.417 558.735 663.663 558.658 663.896C558.581 664.128 558.456 664.342 558.29 664.522C558.124 664.703 557.922 664.846 557.697 664.942L488.211 705.056C487.955 705.213 487.661 705.298 487.361 705.303V705.303Z" fill="white"/>
<path opacity="0.3" d="M868.272 953.912C867.967 953.908 867.666 953.833 867.395 953.693L809.81 920.022C809.613 919.909 809.441 919.757 809.304 919.577C809.167 919.396 809.067 919.19 809.011 918.97C808.955 918.75 808.943 918.522 808.977 918.297C809.01 918.073 809.088 917.858 809.206 917.664C809.317 917.468 809.466 917.297 809.644 917.16C809.822 917.023 810.026 916.924 810.244 916.867C810.461 916.811 810.688 916.799 810.91 916.832C811.132 916.866 811.346 916.943 811.537 917.061L869.122 950.704C869.508 950.943 869.787 951.322 869.899 951.761C870.012 952.201 869.949 952.667 869.726 953.062C869.576 953.316 869.364 953.527 869.109 953.676C868.855 953.825 868.567 953.906 868.272 953.912V953.912Z" fill="white"/>
<path opacity="0.3" d="M1246.36 912.098H1189.49C1189.03 912.091 1188.6 911.905 1188.28 911.582C1187.96 911.259 1187.79 910.824 1187.79 910.37V877.467C1187.78 877.243 1187.82 877.02 1187.91 876.812C1187.99 876.605 1188.12 876.417 1188.28 876.261C1188.6 875.935 1189.03 875.748 1189.49 875.74H1246.36C1246.81 875.747 1247.24 875.932 1247.56 876.256C1247.88 876.579 1248.06 877.014 1248.06 877.467V910.37C1248.06 910.824 1247.88 911.259 1247.56 911.582C1247.24 911.905 1246.81 912.091 1246.36 912.098V912.098ZM1191.21 908.643H1244.63V879.195H1191.21V908.643Z" fill="white"/>
</g>
<path opacity="0.2" d="M4.49707 793.291L1521.78 -70L4.49707 -66.7645V793.291Z" fill="#33ADFF"/>
<path opacity="0.31" d="M4.49707 809.742L1553.01 -70H1521.78L4.49707 793.291V809.742Z" fill="url(#paint1_linear_68_494)"/>
<path opacity="0.5" d="M1726.56 140.908L1611.83 74.6907C1609.36 73.2649 1609.67 70.7698 1612.54 69.2069L1646.25 49.7667L1769.92 121.056L1736.22 140.497C1734.75 141.316 1733.11 141.779 1731.44 141.851C1729.76 141.922 1728.09 141.599 1726.56 140.908V140.908Z" fill="#242993"/>
<path d="M1889.56 50.8087V27.9411H1852.32L1769.75 -19.6859C1768.5 -20.2592 1767.13 -20.5283 1765.75 -20.4711C1764.37 -20.4139 1763.03 -20.0321 1761.83 -19.3568L1679.56 28.1056H1642.54V51.1377C1642.59 51.5421 1642.73 51.9289 1642.97 52.2604C1643.2 52.5918 1643.52 52.8568 1643.89 53.0296L1762.32 121.413C1763.58 121.98 1764.95 122.245 1766.32 122.188C1767.7 122.131 1769.04 121.753 1770.25 121.084L1887.55 53.3586C1888.07 53.1318 1888.53 52.7802 1888.88 52.3353C1889.23 51.8903 1889.46 51.3659 1889.56 50.8087V50.8087Z" fill="url(#paint2_linear_68_494)"/>
<path d="M1762.4 98.463L1643.97 30.0797C1641.94 28.9007 1642.19 26.8443 1644.52 25.5008L1761.83 -42.0874C1763.03 -42.7503 1764.38 -43.1249 1765.75 -43.182C1767.13 -43.2391 1768.5 -42.9771 1769.75 -42.4164L1888.18 25.9669C1890.21 27.1459 1889.97 29.1749 1887.64 30.5459L1770.44 98.134C1769.22 98.8146 1767.85 99.199 1766.46 99.2561C1765.06 99.3133 1763.67 99.0416 1762.4 98.463V98.463Z" fill="url(#paint3_linear_68_494)"/>
<path d="M1762.84 90.4567L1657.84 29.833C1656.03 28.7911 1656.25 27.0911 1658.34 25.775L1762.21 -34.2454C1763.28 -34.8361 1764.47 -35.1707 1765.69 -35.2231C1766.9 -35.2754 1768.12 -35.044 1769.23 -34.5471L1874.2 26.0766C1876.01 27.1185 1875.79 28.8185 1873.71 30.1346L1769.83 90.1551C1768.77 90.7454 1767.59 91.08 1766.37 91.1323C1765.16 91.1847 1763.95 90.9534 1762.84 90.4567V90.4567Z" fill="#242993"/>
<path d="M1763.09 85.3567L1666.62 29.6685C1664.97 28.7362 1665.19 26.9266 1667.09 25.9669L1762.62 -29.2003C1763.6 -29.7428 1764.7 -30.0477 1765.81 -30.0906C1766.93 -30.1334 1768.05 -29.913 1769.07 -29.4471L1865.53 26.2411C1867.18 27.1733 1866.96 28.8459 1865.07 29.9427L1769.53 85.1099C1768.55 85.6524 1767.46 85.9573 1766.34 86.0002C1765.22 86.043 1764.11 85.8226 1763.09 85.3567V85.3567Z" fill="#4553C7"/>
<path d="M1763.88 24.3217L1752.59 17.8234L1758.76 14.2589L1770.03 20.7847L1763.88 24.3217Z" fill="#42FFFF"/>
<path d="M1784.83 23.4169L1773.56 29.9152L1767.39 26.3782L1778.66 19.8524L1784.83 23.4169Z" fill="#42FFFF"/>
<path d="M1761.31 25.8024L1755.16 29.3669L1748.99 25.8024L1755.16 22.2654L1761.31 25.8024Z" fill="#42FFFF"/>
<path d="M1782.58 38.0861L1776.44 41.6506L1758.67 31.3958L1764.84 27.8588L1782.58 38.0861Z" fill="#42FFFF"/>
<path opacity="0.5" d="M416.065 809.249L301.389 743.059C298.894 741.606 299.223 739.111 302.074 737.438L335.775 717.998L459.473 789.287L425.773 808.755C424.306 809.592 422.664 810.073 420.978 810.158C419.292 810.244 417.609 809.932 416.065 809.249V809.249Z" fill="#242993"/>
<path d="M579.086 719.15V696.309H541.957L459.364 648.628C458.12 648.048 456.757 647.769 455.386 647.812C454.014 647.855 452.672 648.219 451.466 648.874L369.202 696.337H332.128V719.232C332.173 719.635 332.32 720.021 332.555 720.352C332.79 720.683 333.106 720.949 333.472 721.124L451.933 789.507C453.181 790.082 454.548 790.352 455.921 790.295C457.294 790.238 458.634 789.855 459.83 789.178L577.139 721.453C577.622 721.25 578.051 720.935 578.389 720.535C578.728 720.135 578.966 719.66 579.086 719.15V719.15Z" fill="url(#paint4_linear_68_494)"/>
<path d="M451.96 766.777L333.554 698.421C331.525 697.242 331.799 695.213 334.13 693.869L451.466 626.144C452.662 625.467 454.002 625.084 455.375 625.027C456.749 624.969 458.116 625.24 459.364 625.815L577.824 694.198C579.854 695.35 579.579 697.406 577.248 698.75L459.94 766.475C458.728 767.153 457.373 767.534 455.986 767.586C454.599 767.638 453.219 767.361 451.96 766.777V766.777Z" fill="url(#paint5_linear_68_494)"/>
<path d="M452.371 758.798L347.265 698.229C345.483 697.187 345.702 695.487 347.759 694.198L451.741 634.15C452.809 633.562 454 633.231 455.218 633.183C456.437 633.136 457.65 633.373 458.761 633.876L563.894 694.417C565.677 695.459 565.457 697.159 563.401 698.475L459.364 758.551C458.301 759.141 457.113 759.471 455.897 759.514C454.682 759.556 453.474 759.311 452.371 758.798V758.798Z" fill="#242993"/>
<path d="M452.646 753.725L356.177 698.037C354.532 697.077 354.724 695.295 356.643 694.308L452.18 639.168C453.152 638.621 454.24 638.312 455.355 638.264C456.47 638.217 457.58 638.432 458.596 638.894L555.065 694.582C556.71 695.542 556.518 697.187 554.599 698.284L459.062 753.451C458.087 753.991 457 754.297 455.886 754.345C454.773 754.392 453.663 754.18 452.646 753.725V753.725Z" fill="#4553C7"/>
<path d="M453.413 692.69L442.143 686.164L448.285 682.627L459.583 689.125L453.413 692.69Z" fill="#42FFFF"/>
<path d="M474.391 691.758L463.093 698.284L456.923 694.719L468.221 688.193L474.391 691.758Z" fill="#42FFFF"/>
<path d="M450.863 694.171L444.693 697.708L438.523 694.171L444.693 690.606L450.863 694.171Z" fill="#42FFFF"/>
<path d="M472.142 706.454L465.972 710.019L448.231 699.764L454.373 696.2L472.142 706.454Z" fill="#42FFFF"/>
<path opacity="0.5" d="M1754.31 548.795L1639.64 482.577C1637.17 481.152 1637.47 478.629 1640.35 477.094L1674.02 457.626L1797.72 528.916L1764.02 548.356C1762.54 549.17 1760.9 549.633 1759.22 549.709C1757.53 549.785 1755.86 549.472 1754.31 548.795Z" fill="#242993"/>
<path d="M1917.33 458.668V435.828H1880.12L1797.56 388.146C1796.31 387.573 1794.94 387.297 1793.57 387.34C1792.19 387.382 1790.84 387.743 1789.63 388.393L1707.37 435.855H1670.35V458.75C1670.38 459.16 1670.53 459.554 1670.76 459.891C1671 460.228 1671.32 460.497 1671.69 460.669L1790.13 529.053C1791.38 529.613 1792.74 529.875 1794.11 529.818C1795.48 529.761 1796.82 529.386 1798.02 528.724L1915.33 460.998C1915.83 460.802 1916.27 460.487 1916.62 460.081C1916.97 459.675 1917.22 459.19 1917.33 458.668V458.668Z" fill="url(#paint6_linear_68_494)"/>
<path d="M1790.21 506.295L1671.72 437.939C1669.69 436.787 1669.94 434.731 1672.27 433.387L1789.63 365.662C1790.84 364.993 1792.18 364.615 1793.56 364.558C1794.93 364.501 1796.3 364.766 1797.56 365.333L1915.99 433.716C1918.02 434.895 1917.77 436.925 1915.41 438.268L1798.11 505.993C1796.91 506.666 1795.57 507.044 1794.19 507.097C1792.82 507.149 1791.45 506.874 1790.21 506.295V506.295Z" fill="url(#paint7_linear_68_494)"/>
<path d="M1790.62 498.316L1685.62 437.747C1683.84 436.705 1684.06 435.005 1686.14 433.689L1790.13 373.669C1791.18 373.07 1792.37 372.731 1793.59 372.678C1794.8 372.626 1796.01 372.862 1797.12 373.367L1902.06 433.963C1903.87 434.978 1903.65 436.705 1901.57 437.994L1797.64 498.069C1796.57 498.653 1795.38 498.98 1794.16 499.022C1792.94 499.065 1791.73 498.823 1790.62 498.316Z" fill="#242993"/>
<path d="M1790.89 493.243L1694.43 437.555C1692.78 436.595 1693 434.813 1694.89 433.826L1790.43 378.686C1791.41 378.146 1792.5 377.84 1793.62 377.792C1794.74 377.744 1795.85 377.957 1796.87 378.412L1893.31 434.1C1894.99 435.06 1894.77 436.842 1892.87 437.829L1797.34 492.969C1796.36 493.516 1795.27 493.826 1794.15 493.873C1793.03 493.921 1791.91 493.705 1790.89 493.243V493.243Z" fill="#4553C7"/>
<path d="M1791.66 432.209L1780.39 425.683L1786.56 422.146L1797.83 428.644L1791.66 432.209Z" fill="#42FFFF"/>
<path d="M1812.64 431.276L1801.34 437.802L1795.2 434.237L1806.47 427.739L1812.64 431.276Z" fill="#42FFFF"/>
<path d="M1789.11 433.689L1782.94 437.254L1776.8 433.689L1782.94 430.125L1789.11 433.689Z" fill="#42FFFF"/>
<path d="M1810.39 445.973L1804.25 449.537L1786.48 439.283L1792.65 435.718L1810.39 445.973Z" fill="#42FFFF"/>
<path opacity="0.5" d="M1032.14 560.722L917.467 494.505C914.999 493.079 915.3 490.556 918.18 489.021L951.853 469.553L1075.55 540.843L1041.85 560.31C1040.37 561.12 1038.73 561.578 1037.04 561.649C1035.36 561.721 1033.68 561.403 1032.14 560.722V560.722Z" fill="#242993"/>
<path d="M1195.16 470.65V447.81H1157.95L1075.36 400.128C1074.11 399.568 1072.74 399.306 1071.37 399.363C1070 399.42 1068.66 399.795 1067.46 400.457L985.197 447.92H948.178V470.815C948.213 471.225 948.355 471.618 948.591 471.955C948.827 472.292 949.148 472.561 949.522 472.734L1067.96 541.117C1069.21 541.678 1070.57 541.94 1071.94 541.882C1073.31 541.825 1074.65 541.451 1075.85 540.788L1193.16 473.063C1193.67 472.859 1194.12 472.532 1194.47 472.11C1194.82 471.689 1195.06 471.187 1195.16 470.65V470.65Z" fill="url(#paint8_linear_68_494)"/>
<path d="M1068.04 518.25L949.604 449.866C947.575 448.715 947.821 446.658 950.152 445.315L1067.46 377.59C1068.66 376.921 1070 376.543 1071.37 376.486C1072.74 376.428 1074.11 376.694 1075.36 377.261L1193.82 445.644C1195.85 446.823 1195.6 448.852 1193.24 450.195L1075.93 517.921C1074.74 518.589 1073.4 518.967 1072.02 519.025C1070.65 519.082 1069.29 518.816 1068.04 518.25Z" fill="url(#paint9_linear_68_494)"/>
<path d="M1068.45 510.243L963.452 449.647C961.669 448.605 961.889 446.905 963.973 445.589L1067.95 385.651C1069.01 385.052 1070.2 384.713 1071.41 384.66C1072.63 384.608 1073.84 384.844 1074.95 385.349L1179.94 445.973C1181.75 446.987 1181.51 448.715 1179.45 450.003L1075.47 510.051C1074.39 510.627 1073.2 510.944 1071.98 510.977C1070.76 511.01 1069.55 510.759 1068.45 510.243V510.243Z" fill="#242993"/>
<path d="M1068.72 505.171L972.254 449.482C970.609 448.523 970.828 446.878 972.72 445.753L1068.26 390.614C1069.24 390.073 1070.33 389.767 1071.45 389.719C1072.56 389.672 1073.68 389.884 1074.7 390.339L1171.14 445.973C1172.81 446.933 1172.6 448.715 1170.7 449.702L1075.17 504.842C1074.19 505.397 1073.1 505.716 1071.98 505.774C1070.86 505.831 1069.75 505.624 1068.72 505.171V505.171Z" fill="#4553C7"/>
<path d="M1069.49 444.136L1058.22 437.61L1064.36 434.073L1075.66 440.571L1069.49 444.136Z" fill="#42FFFF"/>
<path d="M1090.47 443.204L1079.17 449.729L1073.03 446.165L1084.3 439.667L1090.47 443.204Z" fill="#42FFFF"/>
<path d="M1066.94 445.617L1060.77 449.181L1054.63 445.617L1060.77 442.052L1066.94 445.617Z" fill="#42FFFF"/>
<path d="M1088.22 457.9L1082.08 461.465L1064.31 451.21L1070.45 447.646L1088.22 457.9Z" fill="#42FFFF"/>
<g opacity="0.3">
<path opacity="0.3" d="M1480.26 347.017L1397.51 299.226L1480.26 251.489L1562.99 299.226L1480.26 347.017Z" fill="url(#paint10_linear_68_494)"/>
<path opacity="0.3" d="M1480.26 345.043L1399.23 298.266L1397.51 299.226L1480.26 347.017L1562.99 299.226L1561.29 298.266L1480.26 345.043Z" fill="white"/>
<path opacity="0.3" d="M1562.99 663.955L1480.26 711.719V347.017L1562.99 299.226V663.955Z" fill="url(#paint11_linear_68_494)"/>
<path opacity="0.3" d="M1480.26 711.719L1397.51 663.955V299.226L1480.26 347.017V711.719Z" fill="url(#paint12_linear_68_494)"/>
<path opacity="0.3" d="M1372.25 490.118L1289.52 442.354L1372.25 394.589L1454.98 442.354L1372.25 490.118Z" fill="url(#paint13_linear_68_494)"/>
<path opacity="0.3" d="M1372.25 488.143L1291.22 441.366L1289.52 442.354L1372.25 490.118L1454.98 442.354L1453.28 441.366L1372.25 488.143Z" fill="white"/>
<path opacity="0.3" d="M1454.98 726.416L1372.25 774.18V490.118L1454.98 442.354V726.416Z" fill="url(#paint14_linear_68_494)"/>
<path opacity="0.3" d="M1372.25 774.18L1289.52 726.416V442.354L1372.25 490.118V774.18Z" fill="url(#paint15_linear_68_494)"/>
<path opacity="0.3" d="M1264.24 576.488L1181.51 528.724L1264.24 480.96L1346.97 528.724L1264.24 576.488Z" fill="url(#paint16_linear_68_494)"/>
<path opacity="0.3" d="M1264.24 574.514L1183.21 527.737L1181.51 528.724L1264.24 576.488L1346.97 528.724L1345.27 527.737L1264.24 574.514Z" fill="white"/>
<path opacity="0.3" d="M1346.97 788.904L1264.24 836.695V576.488L1346.97 528.724V788.904Z" fill="url(#paint17_linear_68_494)"/>
<path opacity="0.3" d="M1264.24 836.695L1181.51 788.904V528.724L1264.24 576.488V836.695Z" fill="url(#paint18_linear_68_494)"/>
<path opacity="0.3" d="M1156.22 716.188L1073.49 668.424L1156.22 620.633L1238.96 668.424L1156.22 716.188Z" fill="url(#paint19_linear_68_494)"/>
<path opacity="0.3" d="M1156.22 714.187L1075.22 667.41L1073.49 668.424L1156.22 716.188L1238.98 668.424L1237.25 667.41L1156.22 714.187Z" fill="white"/>
<path opacity="0.3" d="M1238.98 851.392L1156.22 899.156V716.188L1238.98 668.424V851.392Z" fill="url(#paint20_linear_68_494)"/>
<path opacity="0.3" d="M1156.22 899.156L1073.49 851.392V668.424L1156.22 716.188V899.156Z" fill="url(#paint21_linear_68_494)"/>
<path opacity="0.3" d="M1048.24 760.114L965.481 712.35L1048.21 664.586L1130.97 712.35L1048.24 760.114Z" fill="url(#paint22_linear_68_494)"/>
<path opacity="0.3" d="M1048.24 758.14L967.209 711.363L965.481 712.35L1048.24 760.114L1130.97 712.35L1129.24 711.363L1048.24 758.14Z" fill="white"/>
<path opacity="0.3" d="M1130.97 913.88L1048.24 961.644V760.114L1130.97 712.35V913.88Z" fill="url(#paint23_linear_68_494)"/>
<path opacity="0.3" d="M1048.24 961.644L965.481 913.88V712.35L1048.24 760.114V961.644Z" fill="url(#paint24_linear_68_494)"/>
</g>
<path opacity="0.5" d="M1130.97 754.794L1480.26 552.633L1454.98 504.869L1114.87 717.422L1130.97 754.794Z" fill="#242993"/>
<path d="M1480.26 275.399L1397.51 227.634L1480.26 179.87L1562.99 227.634L1480.26 275.399Z" fill="url(#paint25_linear_68_494)"/>
<path d="M1480.26 273.424L1399.23 226.647L1397.51 227.635L1480.26 275.399L1562.99 227.635L1561.29 226.647L1480.26 273.424Z" fill="white"/>
<path d="M1562.99 504.869L1480.26 552.633V275.399L1562.99 227.635V504.869Z" fill="url(#paint26_linear_68_494)"/>
<path d="M1480.26 552.633L1397.51 504.869V227.635L1480.26 275.399V552.633Z" fill="url(#paint27_linear_68_494)"/>
<path d="M1372.25 418.499L1289.52 370.735L1372.25 322.971L1454.98 370.735L1372.25 418.499Z" fill="url(#paint28_linear_68_494)"/>
<path opacity="0.3" d="M1372.25 401.143L1319.57 370.735L1372.25 340.327L1424.9 370.735L1372.25 401.143Z" fill="url(#paint29_linear_68_494)"/>
<path d="M1372.25 416.525L1291.22 369.748L1289.52 370.735L1372.25 418.499L1454.98 370.735L1453.28 369.748L1372.25 416.525Z" fill="white"/>
<path d="M1454.98 567.357L1372.25 615.121V418.499L1454.98 370.735V567.357Z" fill="url(#paint30_linear_68_494)"/>
<path d="M1372.25 615.121L1289.52 567.357V370.735L1372.25 418.499V615.121Z" fill="url(#paint31_linear_68_494)"/>
<path d="M1372.25 347.017L1289.52 299.226L1372.25 251.489L1454.98 299.226L1372.25 347.017Z" fill="url(#paint32_linear_68_494)"/>
<path d="M1372.25 345.043L1291.22 298.266L1289.52 299.226L1372.25 347.017L1454.98 299.226L1453.28 298.266L1372.25 345.043Z" fill="white"/>
<path d="M1454.98 333.006L1372.25 380.77V347.017L1454.98 299.226V333.006Z" fill="url(#paint33_linear_68_494)"/>
<path d="M1372.25 380.77L1289.52 333.006V299.226L1372.25 347.017V380.77Z" fill="url(#paint34_linear_68_494)"/>
<path d="M1264.24 504.869L1181.51 457.105L1264.24 409.341L1346.97 457.105L1264.24 504.869Z" fill="url(#paint35_linear_68_494)"/>
<path opacity="0.2" d="M1264.18 476.134C1229.96 476.134 1208.63 457.27 1225.79 442.299C1233.74 435.334 1248.44 431.084 1264.32 431.112C1298.54 431.112 1319.9 450.003 1302.71 464.974C1294.76 471.994 1280.09 476.271 1264.18 476.134Z" fill="#3045BC"/>
<path d="M1264.24 502.895L1183.21 456.118L1181.51 457.105L1264.24 504.869L1346.97 457.105L1345.27 456.118L1264.24 502.895Z" fill="white"/>
<path d="M1346.97 629.845L1264.24 677.609V504.869L1346.97 457.105V629.845Z" fill="url(#paint36_linear_68_494)"/>
<path d="M1264.24 677.609L1181.51 629.845V457.105L1264.24 504.869V677.609Z" fill="url(#paint37_linear_68_494)"/>
<path d="M1156.22 644.569L1073.49 596.805L1156.22 549.041L1238.96 596.805L1156.22 644.569Z" fill="url(#paint38_linear_68_494)"/>
<path d="M1156.22 642.595L1075.22 595.818L1073.49 596.805L1156.22 644.569L1238.98 596.805L1237.25 595.818L1156.22 642.595Z" fill="white"/>
<path d="M1238.98 692.334L1156.22 740.098V644.569L1238.98 596.805V692.334Z" fill="url(#paint39_linear_68_494)"/>
<path d="M1156.22 740.098L1073.49 692.334V596.805L1156.22 644.569V740.098Z" fill="url(#paint40_linear_68_494)"/>
<path d="M1048.24 688.495L965.481 640.731L1048.21 592.967L1130.97 640.731L1048.24 688.495Z" fill="url(#paint41_linear_68_494)"/>
<path d="M1048.24 686.521L967.209 639.744L965.481 640.731L1048.24 688.495L1130.97 640.731L1129.24 639.744L1048.24 686.521Z" fill="white"/>
<path d="M1130.97 754.794L1048.24 802.586V688.495L1130.97 640.731V754.794Z" fill="url(#paint42_linear_68_494)"/>
<path d="M1048.24 802.586L965.481 754.794V640.731L1048.24 688.495V802.586Z" fill="url(#paint43_linear_68_494)"/>
<path opacity="0.5" d="M1301.34 306.135L1340.85 328.975C1372.28 318.008 1394.98 301.255 1391.61 291.603C1388.24 281.952 1360.02 283.076 1328.54 294.071C1319.15 297.312 1310.05 301.348 1301.34 306.135Z" fill="#242993"/>
<path d="M1312.01 256.425L1312.39 246.526L1314.69 240.713L1316.18 245.512L1312.01 256.425Z" fill="#DD821F"/>
<path d="M1416.15 258.317L1416.54 248.583C1416.54 248.583 1408.31 256.808 1408.31 257C1408.31 257.192 1416.15 258.317 1416.15 258.317Z" fill="#FFD85A"/>
<path d="M1363.37 287.189C1334.6 286.503 1311.79 271.889 1312.39 246.499C1312.99 221.109 1336.79 201.093 1365.56 201.778C1394.32 202.464 1417.14 223.714 1416.51 248.994C1415.88 274.274 1392.02 287.874 1363.37 287.189Z" fill="#FFD85A"/>
<path d="M1362.95 303.64C1334.22 302.955 1311.38 281.705 1312.01 256.425C1312.64 231.144 1336.41 211.019 1365.15 211.704C1393.89 212.389 1416.73 233.639 1416.13 258.92C1415.52 284.2 1391.72 304.326 1362.95 303.64Z" fill="#FFD85A"/>
<path d="M1327.72 224.563C1322.99 228.459 1319.15 233.313 1316.44 238.806C1313.73 244.299 1312.22 250.304 1312.01 256.425C1311.38 281.815 1334.22 303.037 1362.95 303.64C1376.31 304.087 1389.39 299.707 1399.78 291.302L1327.72 224.563Z" fill="#DD821F"/>
<path d="M1413.81 258.878C1414.39 234.626 1392.58 214.432 1365.1 213.775C1337.62 213.118 1314.88 232.246 1314.3 256.498C1313.72 280.751 1335.52 300.944 1363 301.601C1390.48 302.258 1413.23 283.13 1413.81 258.878Z" fill="#F9BF30"/>
<path d="M1403.97 258.643C1404.43 239.175 1386.93 222.965 1364.87 222.437C1342.81 221.91 1324.55 237.264 1324.08 256.733C1323.62 276.202 1341.12 292.412 1363.18 292.939C1385.24 293.467 1403.5 278.112 1403.97 258.643Z" fill="#F2B42A"/>
<path d="M1404 258.618C1404 257.823 1404 257.028 1404 256.233C1402.17 274.549 1384.54 288.642 1363.39 288.121C1342.25 287.6 1325.31 272.711 1324.35 254.313C1324.35 255.108 1324.21 255.904 1324.18 256.726C1323.71 276.194 1341.21 292.371 1363.28 292.919C1385.36 293.468 1403.54 278.086 1404 258.618Z" fill="#FFD85A"/>
<path d="M1371.73 260.647L1363.5 253.052C1355.61 254.862 1340.91 258.207 1329.17 260.949C1330.79 265.452 1333.35 269.556 1336.68 272.985C1340.02 276.415 1344.05 279.089 1348.5 280.828L1371.73 260.647Z" fill="#FFD85A"/>
<path d="M1358.84 283.515C1360.15 283.685 1361.47 283.786 1362.79 283.816C1371.84 284.114 1380.71 281.2 1387.83 275.59L1374.47 263.224L1358.84 283.515Z" fill="#FFD85A"/>
<path d="M1354.76 244.909L1339.32 230.623C1334.13 235.175 1329.5 240.165 1328.35 246.828L1354.76 244.909Z" fill="#FFD85A"/>
<path d="M1362.82 226.62C1384.75 227.141 1402.36 243.346 1401.89 262.813C1401.8 266.673 1401 270.484 1399.53 274.055C1402.32 269.365 1403.86 264.042 1404 258.591C1404.47 239.123 1386.95 222.946 1364.9 222.397C1347.32 221.986 1332.16 231.665 1326.51 245.457C1330.36 239.394 1335.75 234.458 1342.13 231.15C1348.5 227.841 1355.64 226.279 1362.82 226.62Z" fill="#DD821F"/>
<path d="M1312.5 246.499C1312.16 249.857 1312.31 253.246 1312.94 256.562C1314.09 252.833 1316.59 241.7 1316.59 241.7L1320.53 232.844L1323.85 230.102L1329.34 226.044L1329.78 213.267C1324.61 217.176 1320.38 222.186 1317.39 227.935C1314.4 233.683 1312.73 240.024 1312.5 246.499V246.499Z" fill="#DD821F"/>
<path d="M1413.16 245.21L1413.38 242.468C1413.38 242.294 1413.45 242.126 1413.58 242.003C1413.7 241.88 1413.87 241.81 1414.04 241.81H1414.23C1414.32 241.817 1414.4 241.841 1414.48 241.881C1414.56 241.92 1414.63 241.975 1414.68 242.041C1414.74 242.107 1414.78 242.184 1414.81 242.267C1414.83 242.349 1414.84 242.437 1414.84 242.523L1414.62 245.265C1414.62 245.35 1414.61 245.435 1414.58 245.515C1414.55 245.594 1414.5 245.667 1414.44 245.729C1414.38 245.79 1414.31 245.839 1414.23 245.873C1414.16 245.906 1414.07 245.923 1413.99 245.923H1413.77C1413.68 245.916 1413.6 245.892 1413.52 245.853C1413.44 245.813 1413.37 245.758 1413.32 245.692C1413.26 245.626 1413.22 245.549 1413.19 245.466C1413.17 245.384 1413.16 245.297 1413.16 245.21Z" fill="#DD821F"/>
<path d="M1408.47 235.175L1408.75 230.486C1408.74 230.387 1408.76 230.287 1408.8 230.194C1408.83 230.101 1408.89 230.017 1408.96 229.945C1409.02 229.873 1409.11 229.816 1409.2 229.777C1409.29 229.738 1409.39 229.718 1409.49 229.718H1409.96C1410.05 229.722 1410.15 229.745 1410.23 229.785C1410.32 229.826 1410.4 229.884 1410.46 229.956C1410.53 230.028 1410.57 230.112 1410.61 230.203C1410.64 230.294 1410.65 230.39 1410.64 230.486L1410.39 235.202C1410.39 235.401 1410.3 235.589 1410.16 235.727C1410.02 235.866 1409.83 235.943 1409.63 235.943H1409.19C1409.09 235.939 1408.99 235.916 1408.91 235.876C1408.82 235.835 1408.74 235.778 1408.67 235.706C1408.61 235.635 1408.55 235.551 1408.52 235.46C1408.49 235.369 1408.47 235.272 1408.47 235.175V235.175Z" fill="#DD821F"/>
<path d="M1402.25 226.428L1402.5 221.876C1402.5 221.653 1402.6 221.441 1402.75 221.283C1402.91 221.125 1403.12 221.033 1403.35 221.026H1404.14C1404.25 221.03 1404.36 221.056 1404.46 221.102C1404.56 221.148 1404.65 221.214 1404.73 221.296C1404.8 221.378 1404.86 221.474 1404.89 221.579C1404.93 221.683 1404.94 221.794 1404.94 221.904L1404.69 226.456C1404.68 226.682 1404.59 226.897 1404.44 227.059C1404.28 227.222 1404.07 227.319 1403.84 227.333H1402.99C1402.88 227.323 1402.78 227.291 1402.68 227.24C1402.58 227.189 1402.5 227.119 1402.43 227.035C1402.36 226.951 1402.31 226.854 1402.28 226.75C1402.25 226.645 1402.24 226.536 1402.25 226.428V226.428Z" fill="#DD821F"/>
<path d="M1392.73 219.381L1393.04 213.897C1393.04 213.672 1393.13 213.456 1393.29 213.296C1393.44 213.137 1393.66 213.047 1393.89 213.047H1394.76C1394.88 213.054 1394.99 213.083 1395.09 213.133C1395.19 213.182 1395.28 213.251 1395.35 213.335C1395.42 213.419 1395.48 213.517 1395.52 213.623C1395.55 213.729 1395.57 213.841 1395.56 213.952L1395.26 219.436C1395.26 219.546 1395.24 219.656 1395.2 219.759C1395.16 219.862 1395.1 219.956 1395.03 220.036C1394.95 220.115 1394.86 220.178 1394.76 220.221C1394.66 220.264 1394.55 220.286 1394.44 220.286H1393.64C1393.52 220.29 1393.4 220.269 1393.29 220.225C1393.18 220.181 1393.08 220.114 1392.99 220.03C1392.91 219.945 1392.84 219.843 1392.8 219.732C1392.75 219.62 1392.73 219.501 1392.73 219.381Z" fill="#DD821F"/>
<path d="M1383.19 214.747L1383.49 208.386C1383.49 208.161 1383.58 207.945 1383.74 207.785C1383.9 207.626 1384.12 207.536 1384.34 207.536H1385.14C1385.25 207.543 1385.36 207.572 1385.46 207.621C1385.56 207.671 1385.65 207.739 1385.72 207.823C1385.8 207.908 1385.86 208.005 1385.89 208.111C1385.93 208.217 1385.94 208.329 1385.93 208.441L1385.63 214.802C1385.64 214.915 1385.62 215.027 1385.58 215.132C1385.53 215.237 1385.47 215.332 1385.39 215.412C1385.31 215.492 1385.22 215.554 1385.11 215.595C1385.01 215.637 1384.9 215.656 1384.78 215.652H1383.99C1383.88 215.645 1383.77 215.616 1383.67 215.567C1383.57 215.518 1383.48 215.449 1383.4 215.365C1383.33 215.281 1383.27 215.183 1383.24 215.077C1383.2 214.971 1383.18 214.859 1383.19 214.747V214.747Z" fill="#DD821F"/>
<path d="M1373.59 211.923L1373.9 205.809C1373.9 205.581 1373.98 205.362 1374.14 205.198C1374.3 205.034 1374.52 204.939 1374.75 204.931H1375.57C1375.68 204.938 1375.79 204.967 1375.89 205.017C1375.99 205.066 1376.08 205.135 1376.15 205.219C1376.23 205.303 1376.29 205.401 1376.32 205.507C1376.36 205.613 1376.37 205.725 1376.36 205.836L1376.06 211.951C1376.06 212.176 1375.97 212.392 1375.81 212.552C1375.65 212.711 1375.44 212.801 1375.21 212.801H1374.42C1374.31 212.797 1374.2 212.772 1374.09 212.726C1373.99 212.68 1373.9 212.614 1373.82 212.532C1373.75 212.451 1373.69 212.355 1373.65 212.251C1373.61 212.146 1373.59 212.035 1373.59 211.923V211.923Z" fill="#DD821F"/>
<path d="M1363.97 210.964L1364.27 204.74C1364.27 204.629 1364.29 204.519 1364.33 204.416C1364.37 204.313 1364.43 204.219 1364.5 204.14C1364.58 204.061 1364.67 203.998 1364.77 203.955C1364.87 203.912 1364.98 203.889 1365.09 203.89H1365.92C1366.14 203.904 1366.34 204.003 1366.49 204.167C1366.64 204.331 1366.72 204.546 1366.71 204.767L1366.41 210.991C1366.4 211.212 1366.3 211.421 1366.15 211.578C1365.99 211.734 1365.78 211.828 1365.56 211.841H1364.77C1364.65 211.838 1364.55 211.812 1364.45 211.766C1364.35 211.719 1364.26 211.653 1364.18 211.571C1364.11 211.489 1364.05 211.393 1364.01 211.289C1363.98 211.185 1363.96 211.074 1363.97 210.964V210.964Z" fill="#DD821F"/>
<path d="M1354.29 211.156L1354.59 205.343C1354.59 205.23 1354.61 205.118 1354.65 205.013C1354.69 204.908 1354.75 204.813 1354.83 204.733C1354.91 204.653 1355.01 204.591 1355.11 204.55C1355.22 204.508 1355.33 204.489 1355.44 204.493H1356.37C1356.6 204.514 1356.8 204.619 1356.95 204.787C1357.1 204.955 1357.18 205.174 1357.17 205.398L1356.87 211.21C1356.87 211.323 1356.85 211.435 1356.81 211.54C1356.77 211.645 1356.71 211.74 1356.63 211.82C1356.55 211.9 1356.45 211.962 1356.35 212.003C1356.24 212.045 1356.13 212.064 1356.02 212.06H1355.22C1355.1 212.068 1354.98 212.05 1354.86 212.008C1354.75 211.965 1354.64 211.9 1354.56 211.814C1354.47 211.729 1354.4 211.626 1354.35 211.513C1354.31 211.4 1354.29 211.278 1354.29 211.156V211.156Z" fill="#DD821F"/>
<path d="M1344.58 213.267L1344.86 207.783C1344.86 207.557 1344.95 207.342 1345.11 207.179C1345.27 207.017 1345.48 206.919 1345.71 206.906H1346.5C1346.61 206.913 1346.72 206.942 1346.82 206.991C1346.92 207.04 1347.01 207.109 1347.09 207.193C1347.16 207.277 1347.22 207.375 1347.25 207.481C1347.29 207.587 1347.31 207.699 1347.3 207.81L1347.02 213.431C1347.02 213.657 1346.93 213.873 1346.77 214.032C1346.62 214.192 1346.4 214.281 1346.17 214.281H1345.41C1345.28 214.28 1345.16 214.251 1345.05 214.196C1344.93 214.142 1344.83 214.064 1344.76 213.967C1344.68 213.87 1344.62 213.757 1344.59 213.636C1344.56 213.515 1344.56 213.389 1344.58 213.267Z" fill="#DD821F"/>
<path d="M1334.79 218.01L1335.09 211.923C1335.09 211.698 1335.18 211.482 1335.34 211.322C1335.5 211.163 1335.72 211.073 1335.94 211.073H1336.74C1336.85 211.08 1336.96 211.109 1337.06 211.159C1337.16 211.208 1337.25 211.277 1337.33 211.361C1337.4 211.445 1337.46 211.543 1337.49 211.648C1337.53 211.754 1337.54 211.867 1337.54 211.978L1337.23 218.065C1337.24 218.177 1337.22 218.288 1337.18 218.393C1337.14 218.497 1337.08 218.593 1337 218.674C1336.93 218.756 1336.84 218.822 1336.73 218.868C1336.63 218.914 1336.52 218.939 1336.41 218.943H1335.59C1335.36 218.922 1335.15 218.812 1335 218.638C1334.85 218.464 1334.78 218.239 1334.79 218.01V218.01Z" fill="#DD821F"/>
<path d="M1286.15 422.996C1286.15 422.996 1287.6 424.531 1289.14 426.341C1291.47 428.455 1294.04 430.295 1296.79 431.825C1298.6 432.949 1306.88 439.228 1308.63 445.534C1310.39 451.84 1304.44 452.526 1298.38 451.457C1293.14 450.001 1288.47 446.978 1285 442.792C1280.66 438.529 1275.66 435.001 1270.19 432.346C1262.76 428.479 1267.25 423.325 1267.25 423.325L1286.15 422.996Z" fill="#162184"/>
<path d="M1230.95 441.366C1230.11 443.399 1229.58 445.542 1229.36 447.728C1229.03 451.292 1228.51 459.052 1228.32 461.437C1227.91 466.128 1229.25 470.802 1232.07 474.571C1236.05 479.89 1238.13 482.002 1243.42 479.89C1248.72 477.779 1248.61 468.923 1247.67 464.316C1246.78 459.055 1246.2 453.744 1245.95 448.413C1246.02 447.811 1245.92 447.2 1245.65 446.658L1230.95 441.366Z" fill="#162184"/>
<path d="M1304.46 317.898C1304.46 317.898 1303.34 358.753 1293.83 380.441C1289.37 393.956 1286.77 408.013 1286.09 422.228C1286.52 423.385 1286.69 424.624 1286.57 425.854C1286.46 427.083 1286.07 428.271 1285.43 429.329C1283.21 432.51 1269.23 435.416 1266.93 424.97C1264.83 412.305 1265.2 399.353 1268.02 386.83C1270.57 378.604 1267.12 356.23 1267.12 356.23C1267.12 356.23 1263.31 358.67 1258.29 374.793C1255.43 383.936 1251.96 392.877 1247.89 401.554C1246.17 406.023 1244.58 433.36 1245.67 446.713C1245.67 446.713 1234.35 448.331 1231.09 442.929C1227.82 437.528 1226.7 409.505 1227.55 400.594C1228.4 391.683 1232.1 363.085 1231.58 354.228C1231.06 345.372 1229.22 338.216 1231.25 329.387C1233.28 320.558 1293 300.926 1293 300.926L1304.46 317.898Z" fill="#242993"/>
<path d="M1231.58 354.229C1231.09 345.4 1229.22 338.216 1231.25 329.387C1232.02 326.069 1240.93 321.161 1251.76 316.445C1270.05 314.8 1293.22 312.853 1294.81 313.1C1297.67 313.856 1300.47 314.828 1303.18 316.006L1304.46 317.898C1304.46 317.898 1304.46 320.393 1304.14 324.451C1300.01 325.136 1295.81 325.136 1291.69 324.451C1287.73 331.759 1281.79 337.803 1274.55 341.89C1265.69 346.304 1239.75 344.796 1238.27 346.469C1236.79 348.142 1236.49 370.488 1236.65 373.34C1236.82 376.191 1234.21 394.096 1231.8 409.917C1230.54 421.62 1231.01 433.444 1233.17 445.013C1232.32 444.514 1231.61 443.818 1231.09 442.984C1227.79 437.5 1226.7 409.56 1227.55 400.649C1228.4 391.738 1232.1 363.085 1231.58 354.229Z" fill="#162184"/>
<path d="M1284.45 184.285C1284.45 184.285 1297.72 187.301 1302.16 188.37C1302.53 188.451 1302.86 188.621 1303.15 188.865C1303.43 189.109 1303.65 189.42 1303.78 189.769C1306.96 198.804 1307.68 208.523 1305.86 217.928C1304.08 227.95 1303.4 238.138 1303.83 248.309L1309.95 280.197C1309.95 280.197 1317.65 310.577 1317 311.4C1316.34 312.222 1299.25 325.247 1293.91 323.409C1288.56 321.572 1290.34 318.556 1290.34 318.556C1290.34 318.556 1286.01 340.492 1266.87 340.354C1247.73 340.217 1232.1 340.354 1228.84 332.485C1225.57 324.616 1229.74 292.234 1233.11 279.347C1236.49 266.46 1244.49 240.96 1244.49 240.96L1216.52 209.785L1240.49 191.496C1240.49 191.496 1246.22 180.857 1248.55 179.514C1250.88 178.17 1252.14 179.295 1252.14 179.295L1284.45 184.285Z" fill="#4553C7"/>
<path d="M1293.58 316.39C1293.58 317.487 1294.21 319.132 1297.66 320.338C1301.12 321.545 1310.47 316.061 1316.45 311.893C1313.46 314.389 1298.79 325.082 1293.91 323.409C1293.05 323.144 1292.24 322.736 1291.52 322.203C1292.37 320.325 1293.05 318.381 1293.58 316.39V316.39Z" fill="url(#paint44_linear_68_494)"/>
<path d="M1229 329.908C1232.43 338.134 1248.91 338.134 1269.12 338.134C1273.58 338.252 1277.97 336.988 1281.68 334.514C1279.72 336.417 1277.4 337.907 1274.86 338.896C1272.31 339.885 1269.6 340.353 1266.87 340.272C1247.68 340.08 1232.1 340.272 1228.84 332.403C1227.67 327.811 1227.3 323.054 1227.74 318.337C1227.49 322.238 1227.92 326.151 1229 329.908V329.908Z" fill="url(#paint45_linear_68_494)"/>
<path d="M1249.02 179.24C1249.02 179.24 1244.14 185.162 1251.19 193.169C1257.97 201.483 1264.04 210.363 1269.31 219.71C1273.29 226.565 1276.96 230.239 1279.05 236.162C1279.05 236.162 1279.32 229.143 1279.59 218.285C1280 210.439 1280 202.577 1279.59 194.732C1278.61 189.22 1254.45 176.553 1249.02 179.24Z" fill="#F0FFFF"/>
<path d="M1267.34 197.062C1268.36 197.742 1269.51 198.226 1270.71 198.488C1272.03 197.742 1273.25 196.82 1274.33 195.746C1274.33 195.746 1281.29 195.746 1282.03 192.648C1282.54 190.097 1283.2 187.579 1284.01 185.107C1285.81 181.272 1287.09 177.215 1287.82 173.043C1287.57 169.254 1287.98 165.451 1289.03 161.801C1290.32 159.059 1292.07 130.434 1264.54 131.256C1237.01 132.079 1245.56 160.65 1245.56 160.65C1245.56 160.65 1243.56 161.5 1244.77 165.174C1245.97 168.848 1246.28 169.232 1246.88 171.069C1247.28 172.818 1248.24 174.387 1249.62 175.538L1250.06 178.938C1249.4 182.487 1250.17 186.152 1252.2 189.138C1255.46 194.183 1267.34 197.062 1267.34 197.062Z" fill="#FCE8EE"/>
<path d="M1302.93 188.699C1302.93 188.699 1305.86 189.138 1315.38 213.075C1320.7 226.455 1328.9 240.302 1330.65 250.228C1332.41 260.154 1331.42 270.792 1329.45 271.532C1327.47 272.273 1293.33 285.077 1282.61 289.108C1282.47 289.158 1282.32 289.178 1282.18 289.165C1282.03 289.153 1281.89 289.108 1281.76 289.035C1281.63 288.962 1281.52 288.862 1281.44 288.742C1281.35 288.622 1281.29 288.485 1281.27 288.34L1278.33 271.889L1299.56 263.663C1301.77 260.97 1304.42 258.671 1307.4 256.863C1307.4 256.863 1303.15 249.021 1303.42 246.883C1303.7 244.744 1303.04 222.562 1305.53 213.541C1308.03 204.52 1302.93 188.699 1302.93 188.699Z" fill="#242993"/>
<path d="M1290.56 252.01C1291.74 251.2 1292.96 250.45 1294.21 249.762C1294.95 249.488 1298.84 248.144 1299.69 247.815C1301 247.639 1302.33 247.639 1303.64 247.815C1303.85 247.83 1304.05 247.899 1304.22 248.014C1304.4 248.13 1304.54 248.288 1304.63 248.473C1305.53 250.146 1308.06 255.026 1307.76 256.891C1307.76 256.891 1300.68 261.36 1299.91 263.334L1298.79 263.581C1298.79 263.581 1293.88 253.491 1290.56 252.01Z" fill="#FCE8EE"/>
<path d="M1233.11 279.347C1233.91 276.249 1235.01 272.41 1236.19 268.379L1279.18 286.942C1274.72 291.852 1269.23 295.723 1263.11 298.282C1256.99 300.84 1250.38 302.023 1243.75 301.748C1238.8 301.472 1233.99 299.954 1229.77 297.334C1230.56 291.282 1231.68 285.278 1233.11 279.347Z" fill="#242993"/>
<path d="M1216.52 209.785C1216.52 209.785 1227.88 211.348 1237.04 225.88C1243.14 235.878 1248.44 246.349 1252.89 257.192L1253.19 259.084C1253.38 260.238 1253.83 261.332 1254.51 262.283C1255.19 263.233 1256.08 264.015 1257.11 264.569C1258.14 265.122 1259.29 265.432 1260.45 265.475C1261.62 265.517 1262.79 265.292 1263.85 264.815C1273.53 260.51 1287.87 253.847 1290.53 252.01C1293.34 253.79 1295.76 256.119 1297.64 258.856C1299.53 261.594 1300.84 264.684 1301.5 267.941C1303.37 276.879 1302.9 276.907 1302.9 276.907C1302.9 276.907 1264.7 294.729 1249.95 294.537C1235.2 294.345 1216.5 245.868 1214.3 235.86C1212.11 225.852 1210 212.609 1216.52 209.785Z" fill="#242993"/>
<path d="M1216.52 209.785C1216.52 209.785 1227.88 211.348 1237.04 225.88C1243.14 235.878 1248.44 246.349 1252.89 257.192L1253.19 259.084C1253.38 260.238 1253.83 261.332 1254.51 262.283C1255.19 263.233 1256.08 264.015 1257.11 264.569C1258.14 265.122 1259.29 265.432 1260.45 265.475C1261.62 265.517 1262.79 265.292 1263.85 264.815C1273.53 260.51 1287.87 253.847 1290.53 252.01C1293.34 253.79 1295.76 256.119 1297.64 258.856C1299.53 261.594 1300.84 264.684 1301.5 267.941C1303.37 276.879 1302.9 276.907 1302.9 276.907C1302.9 276.907 1264.7 294.729 1249.95 294.537C1235.2 294.345 1216.5 245.868 1214.3 235.86C1212.11 225.852 1210 212.609 1216.52 209.785Z" fill="#485DCE"/>
<path d="M1258.31 267.091C1258.31 267.091 1253.52 271.587 1251.4 269.12C1249.29 266.652 1249.92 266.378 1249.92 266.378C1249.92 266.378 1245.59 266.378 1245.07 263.636C1244.55 260.894 1242.33 262.347 1242.33 259.331C1242.33 256.315 1245.84 256.918 1245.84 256.918L1258.31 267.091Z" fill="#4553C7"/>
<path d="M1264.16 264.678C1264.16 264.678 1262.81 263.444 1261.11 261.936C1259.23 259.439 1257.58 256.778 1256.18 253.984C1255.71 253.463 1249.95 249.049 1247.15 248.967C1244.36 248.884 1246.44 251.983 1247.15 252.421C1247.87 252.86 1250.5 254.231 1250.5 254.231C1250.5 254.231 1253.24 256.562 1253.6 256.973C1253.95 257.384 1245.84 256.397 1244.55 257.192C1244.3 257.398 1244.09 257.657 1243.95 257.951C1243.81 258.245 1243.74 258.567 1243.74 258.892C1243.74 259.218 1243.81 259.539 1243.95 259.833C1244.09 260.127 1244.3 260.387 1244.55 260.592C1245.02 260.921 1245.57 261.111 1246.14 261.141C1245.87 261.813 1245.87 262.566 1246.16 263.234C1246.44 263.902 1246.98 264.431 1247.65 264.705C1250.06 265.829 1250.64 265.199 1250.64 265.199C1250.64 265.199 1250.83 269.394 1254.83 268.571L1264.16 264.678Z" fill="#FCE8EE"/>
<path d="M1289.58 147.105C1289.58 147.105 1293.17 158.566 1283.71 155.33C1274.25 152.095 1265.69 146.638 1262.7 148.695C1260.45 150.285 1260.56 155.111 1260.73 157.332C1260.79 158.09 1260.59 158.846 1260.15 159.471L1257.41 163.556C1257.1 164.025 1256.91 164.561 1256.86 165.119L1256.67 167.861C1256.64 168.206 1256.49 168.53 1256.25 168.772C1256 169.014 1255.67 169.158 1255.33 169.177H1254.7C1254.35 169.209 1254 169.108 1253.73 168.894C1253.45 168.68 1253.27 168.369 1253.21 168.025L1252.47 163.858C1252.47 163.858 1250.25 158.237 1245.54 160.458C1245.54 160.458 1242.38 156.208 1243.43 147.187C1244.47 138.166 1248.53 128.734 1266.27 127.226C1284.01 125.718 1289.58 147.105 1289.58 147.105Z" fill="#AA9AAC"/>
<path d="M1262.46 207.125L1265.2 205.069C1266.6 206.234 1267.76 207.658 1268.62 209.264C1269.12 212.259 1269.12 215.316 1268.62 218.312L1269.42 219.71L1270.43 217.873L1271.26 209.648C1271.26 209.648 1270.35 203.615 1270.27 203.478C1268.55 203.566 1266.84 203.74 1265.14 203.999C1264.05 204.856 1263.14 205.917 1262.46 207.125V207.125Z" fill="#C4E3FF"/>
<path d="M1275.21 199.036C1276.66 199.115 1278.07 199.538 1279.32 200.271L1275.86 200.49C1275.4 200.545 1275.21 199.036 1275.21 199.036Z" fill="#C4E3FF"/>
<path d="M1269.8 199.667L1265.03 204.109C1267.45 205.282 1269.35 207.302 1270.38 209.785C1270.38 209.785 1275.56 210.744 1276.06 208.88C1276.55 207.015 1276.06 202.272 1276.66 200.161C1277.26 198.049 1269.8 199.667 1269.8 199.667Z" fill="#242993"/>
<path d="M1275.86 208.77C1276.27 210.66 1276.89 212.5 1277.7 214.254C1278.66 215.872 1279.68 217.681 1279.68 217.681V240.521C1279.68 240.521 1271.28 223.193 1269.45 219.71C1269.5 216.376 1269.86 213.054 1270.52 209.785C1271.18 208.194 1275.86 208.77 1275.86 208.77Z" fill="#242993"/>
<path d="M1253.3 175.017C1255.08 179.786 1257.89 184.106 1261.52 187.673C1265.16 191.24 1269.53 193.968 1274.33 195.664C1273.25 196.738 1272.03 197.66 1270.71 198.406C1269.51 198.144 1268.36 197.66 1267.34 196.98C1267.34 196.98 1255.46 194.238 1252.06 189.056C1250.03 186.07 1249.27 182.405 1249.92 178.856L1249.43 175.538C1250.06 175.817 1250.75 175.916 1251.44 175.824C1252.12 175.732 1252.76 175.453 1253.3 175.017V175.017Z" fill="#E2C8CF"/>
<path d="M1240.66 193.717C1240.66 193.717 1242.85 201.257 1243.12 201.531C1244.96 201.567 1246.79 201.457 1248.61 201.202L1246.08 206.001C1246.08 206.001 1272.22 234.023 1277.65 249.104C1267.46 234.19 1256.04 220.158 1243.51 207.152L1246.58 202.491L1241.23 203.533L1240.66 193.717Z" fill="#242993"/>
<path d="M1283.6 186.999L1285 188.59L1283.35 190.125L1288.2 194.485C1288.2 194.485 1289.66 225.139 1283.76 245.457C1283.76 245.457 1291.77 226.812 1289.96 193.635L1284.72 190.098L1286.45 188.425L1283.6 186.999Z" fill="#242993"/>
<path d="M1267.12 356.23H1266.95L1273.73 349.019C1270.6 353.433 1274.19 373.696 1274.58 378.22C1274.96 382.744 1270.96 392.396 1269.45 403.583C1268.79 412.662 1269.33 421.788 1271.04 430.728C1269.97 430.102 1269.04 429.251 1268.33 428.233C1267.62 427.215 1267.14 426.055 1266.93 424.833C1264.83 412.168 1265.2 399.216 1268.02 386.693C1270.57 378.686 1267.12 356.23 1267.12 356.23Z" fill="#162184"/>
<path d="M1249.84 294.537C1235.09 294.373 1216.39 245.868 1214.19 235.86C1213.86 234.188 1213.51 232.405 1213.21 230.623C1213.21 230.788 1217.07 241.234 1220.77 250.529C1224.48 259.825 1244.19 288.203 1254.26 290.068C1263.33 291.713 1296.02 276.358 1302.35 273.452C1302.93 276.852 1302.68 276.907 1302.68 276.907C1302.68 276.907 1264.59 294.729 1249.84 294.537Z" fill="url(#paint46_linear_68_494)"/>
<path d="M1254.64 169.369C1254.29 169.401 1253.95 169.3 1253.67 169.086C1253.4 168.872 1253.21 168.561 1253.16 168.217L1252.42 164.05C1252.42 164.05 1250.2 158.429 1245.48 160.65C1245.48 160.65 1242.52 156.619 1243.32 148.092C1248.55 155.934 1260.15 159.553 1260.15 159.553L1257.41 163.638C1257.1 164.107 1256.91 164.643 1256.86 165.201L1256.67 167.943C1256.64 168.288 1256.49 168.612 1256.25 168.854C1256 169.096 1255.67 169.24 1255.33 169.259L1254.64 169.369Z" fill="#938496"/>
<path opacity="0.5" d="M693.296 838.066C696.696 847.69 673.936 864.443 642.484 875.438C611.032 886.433 582.815 887.558 579.415 877.906C576.014 868.255 598.802 851.529 630.254 840.506C661.706 829.484 690.033 828.36 693.296 838.066Z" fill="#242993"/>
<path d="M613.691 802.915L614.075 792.989L616.406 787.176L617.859 792.002L613.691 802.915Z" fill="#DD821F"/>
<path d="M717.838 804.807L718.222 795.073C718.222 795.073 709.996 803.299 709.996 803.491C709.996 803.683 717.838 804.807 717.838 804.807Z" fill="#FFD85A"/>
<path d="M665.052 833.679C636.287 832.994 613.472 818.379 614.076 792.989C614.679 767.599 638.481 747.583 667.246 748.269C696.011 748.954 718.825 770.204 718.222 795.484C717.619 820.765 693.79 834.365 665.052 833.679Z" fill="#FFD85A"/>
<path d="M717.809 805.375C718.416 779.987 695.601 758.849 666.85 758.161C638.099 757.473 614.299 777.497 613.692 802.885C613.085 828.273 635.9 849.411 664.651 850.098C693.402 850.786 717.202 830.762 717.809 805.375Z" fill="#FFD85A"/>
<path d="M629.404 771.026C624.68 774.929 620.837 779.789 618.128 785.286C615.42 790.783 613.908 796.791 613.691 802.915C613.088 828.277 635.903 849.527 664.64 850.103C677.997 850.557 691.07 846.187 701.467 837.792L629.404 771.026Z" fill="#DD821F"/>
<path d="M715.479 805.292C716.059 781.04 694.253 760.847 666.773 760.189C639.294 759.532 616.547 778.66 615.967 802.913C615.387 827.165 637.193 847.358 664.673 848.015C692.152 848.672 714.899 829.545 715.479 805.292Z" fill="#F9BF30"/>
<path d="M705.692 805.085C706.158 785.616 688.653 769.406 666.594 768.879C644.535 768.351 626.275 783.706 625.809 803.175C625.343 822.643 642.848 838.853 664.907 839.381C686.967 839.908 705.226 824.553 705.692 805.085Z" fill="#F2B42A"/>
<path d="M705.69 805.163C705.731 804.359 705.731 803.554 705.69 802.75C703.853 821.066 686.221 835.16 665.079 834.666C643.937 834.173 626.991 819.229 626.031 800.858C626.031 801.644 625.976 802.44 625.867 803.244C625.4 822.711 642.923 838.889 664.969 839.465C687.016 840.04 705.224 824.576 705.69 805.163Z" fill="#FFD85A"/>
<path d="M673.416 807.137L665.354 799.679C657.484 801.462 642.786 804.807 631.022 807.576C632.645 812.078 635.212 816.181 638.551 819.61C641.89 823.038 645.924 825.713 650.381 827.455L673.416 807.137Z" fill="#FFD85A"/>
<path d="M660.527 830.005C661.847 830.166 663.174 830.258 664.503 830.279C673.552 830.594 682.417 827.678 689.512 822.053L676.158 809.66L660.527 830.005Z" fill="#FFD85A"/>
<path d="M656.441 791.454L641.003 777.168C635.821 781.693 631.186 786.683 630.035 793.373L656.441 791.454Z" fill="#FFD85A"/>
<path d="M664.504 773.11C686.441 773.631 704.073 789.863 703.607 809.331C703.505 813.184 702.697 816.985 701.221 820.545C704.012 815.869 705.552 810.552 705.691 805.108C706.157 785.641 688.662 769.463 666.588 768.888C649.011 768.476 633.847 778.155 628.198 791.975C632.042 785.903 637.428 780.958 643.805 777.644C650.183 774.331 657.325 772.766 664.504 773.11V773.11Z" fill="#DD821F"/>
<path d="M614.076 792.989C613.737 796.338 613.885 799.718 614.514 803.025C615.666 799.296 618.161 788.163 618.161 788.163L622.137 779.307L625.428 776.565L630.912 772.48L631.378 759.73C626.199 763.635 621.957 768.648 618.964 774.402C615.97 780.156 614.3 786.507 614.076 792.989V792.989Z" fill="#DD821F"/>
<path d="M714.849 791.673L715.069 789.068C715.065 788.981 715.079 788.894 715.111 788.812C715.142 788.73 715.191 788.656 715.253 788.594C715.315 788.532 715.389 788.484 715.47 788.452C715.552 788.421 715.639 788.406 715.727 788.41H715.919C716.005 788.414 716.09 788.434 716.169 788.471C716.247 788.507 716.318 788.559 716.376 788.622C716.435 788.686 716.48 788.76 716.51 788.842C716.54 788.923 716.553 789.009 716.55 789.096L716.33 791.838C716.323 792.01 716.252 792.174 716.13 792.296C716.008 792.418 715.844 792.489 715.672 792.496H715.48C715.382 792.49 715.286 792.463 715.199 792.417C715.112 792.371 715.036 792.307 714.977 792.229C714.917 792.151 714.874 792.061 714.852 791.965C714.83 791.869 714.829 791.769 714.849 791.673Z" fill="#DD821F"/>
<path d="M710.27 781.665L710.544 776.949C710.544 776.753 710.622 776.564 710.761 776.426C710.9 776.287 711.089 776.209 711.285 776.209H711.751C711.95 776.223 712.136 776.314 712.269 776.462C712.402 776.61 712.472 776.805 712.464 777.004L712.19 781.693C712.19 781.892 712.113 782.083 711.975 782.226C711.837 782.369 711.648 782.453 711.45 782.46H710.983C710.784 782.446 710.599 782.355 710.466 782.207C710.333 782.059 710.262 781.864 710.27 781.665V781.665Z" fill="#DD821F"/>
<path d="M703.936 772.918L704.21 768.367C704.206 768.255 704.225 768.144 704.264 768.039C704.303 767.935 704.363 767.839 704.439 767.758C704.516 767.676 704.607 767.611 704.709 767.565C704.811 767.519 704.921 767.493 705.033 767.49H705.828C706.056 767.504 706.27 767.606 706.423 767.775C706.577 767.944 706.659 768.166 706.651 768.394L706.377 772.946C706.377 773.171 706.287 773.388 706.128 773.547C705.968 773.706 705.752 773.796 705.526 773.796H704.731C704.513 773.775 704.31 773.674 704.163 773.512C704.016 773.349 703.935 773.138 703.936 772.918V772.918Z" fill="#DD821F"/>
<path d="M694.448 765.844L694.722 760.36C694.722 760.135 694.811 759.919 694.971 759.759C695.13 759.6 695.347 759.51 695.572 759.51H696.367C696.479 759.517 696.588 759.546 696.689 759.596C696.789 759.645 696.879 759.714 696.953 759.798C697.027 759.882 697.084 759.98 697.12 760.086C697.156 760.192 697.17 760.304 697.163 760.415L696.889 765.899C696.876 766.12 696.782 766.329 696.625 766.486C696.468 766.642 696.26 766.736 696.038 766.749H695.243C695.13 766.746 695.019 766.719 694.916 766.671C694.814 766.623 694.723 766.555 694.648 766.47C694.573 766.385 694.517 766.286 694.483 766.178C694.448 766.07 694.436 765.957 694.448 765.844V765.844Z" fill="#DD821F"/>
<path d="M684.877 761.293L685.207 754.931C685.207 754.711 685.292 754.499 685.446 754.34C685.599 754.181 685.809 754.089 686.029 754.081H686.825C686.937 754.085 687.046 754.11 687.148 754.156C687.25 754.203 687.342 754.268 687.418 754.35C687.495 754.431 687.554 754.527 687.594 754.631C687.633 754.736 687.651 754.847 687.648 754.959L687.291 761.293C687.291 761.513 687.206 761.726 687.052 761.884C686.898 762.043 686.689 762.136 686.468 762.143H685.673C685.457 762.129 685.255 762.033 685.107 761.875C684.959 761.717 684.877 761.509 684.877 761.293Z" fill="#DD821F"/>
<path d="M675.28 758.386L675.582 752.272C675.595 752.051 675.689 751.842 675.846 751.685C676.002 751.529 676.211 751.435 676.432 751.422H677.228C677.338 751.425 677.447 751.451 677.547 751.497C677.648 751.544 677.738 751.61 677.812 751.692C677.886 751.774 677.943 751.87 677.979 751.974C678.016 752.078 678.031 752.189 678.023 752.299L677.721 758.414C677.725 758.525 677.707 758.637 677.667 758.741C677.628 758.846 677.568 758.941 677.492 759.023C677.416 759.104 677.324 759.17 677.222 759.216C677.12 759.262 677.01 759.288 676.899 759.291H676.103C675.875 759.277 675.662 759.175 675.508 759.006C675.354 758.837 675.273 758.614 675.28 758.386V758.386Z" fill="#DD821F"/>
<path d="M665.655 757.427L665.957 751.23C665.953 751.116 665.973 751.002 666.014 750.896C666.055 750.79 666.117 750.693 666.196 750.611C666.275 750.529 666.37 750.464 666.475 750.42C666.58 750.375 666.693 750.352 666.807 750.353H667.603C667.714 750.36 667.824 750.388 667.924 750.438C668.025 750.487 668.115 750.556 668.188 750.64C668.262 750.724 668.319 750.822 668.355 750.928C668.391 751.034 668.406 751.146 668.398 751.257L668.096 757.454C668.096 757.68 668.007 757.896 667.847 758.055C667.688 758.215 667.472 758.304 667.246 758.304H666.451C666.23 758.29 666.024 758.19 665.875 758.027C665.727 757.863 665.648 757.648 665.655 757.427Z" fill="#DD821F"/>
<path d="M655.976 757.646L656.277 751.806C656.284 751.582 656.376 751.37 656.534 751.212C656.692 751.054 656.904 750.963 657.128 750.956H657.923C658.144 750.97 658.35 751.069 658.499 751.233C658.647 751.397 658.726 751.612 658.718 751.833L658.417 757.673C658.417 757.894 658.331 758.106 658.177 758.265C658.024 758.424 657.815 758.516 657.594 758.523H656.771C656.55 758.509 656.344 758.41 656.195 758.246C656.047 758.082 655.968 757.867 655.976 757.646Z" fill="#DD821F"/>
<path d="M646.159 759.757L646.46 754.109C646.46 753.888 646.546 753.676 646.7 753.517C646.853 753.359 647.063 753.266 647.283 753.259H648.079C648.19 753.262 648.3 753.288 648.402 753.334C648.504 753.38 648.596 753.446 648.672 753.527C648.748 753.609 648.808 753.704 648.847 753.809C648.887 753.913 648.905 754.025 648.902 754.136L648.6 759.785C648.6 760.01 648.51 760.226 648.351 760.386C648.191 760.545 647.975 760.635 647.75 760.635H646.954C646.733 760.621 646.527 760.521 646.378 760.357C646.23 760.193 646.151 759.978 646.159 759.757Z" fill="#DD821F"/>
<path d="M636.506 764.501L636.808 758.386C636.808 758.165 636.894 757.953 637.047 757.795C637.201 757.636 637.41 757.543 637.631 757.536H638.426C638.537 757.54 638.645 757.565 638.746 757.612C638.846 757.658 638.936 757.724 639.01 757.806C639.085 757.888 639.142 757.984 639.178 758.088C639.214 758.193 639.229 758.303 639.222 758.414L638.92 764.528C638.924 764.638 638.905 764.748 638.865 764.851C638.826 764.954 638.766 765.048 638.689 765.128C638.612 765.207 638.52 765.27 638.419 765.313C638.317 765.356 638.208 765.378 638.097 765.378H637.302C637.191 765.375 637.083 765.349 636.982 765.303C636.882 765.256 636.792 765.19 636.718 765.108C636.643 765.026 636.586 764.93 636.55 764.826C636.514 764.722 636.499 764.611 636.506 764.501V764.501Z" fill="#DD821F"/>
<path opacity="0.5" d="M1483.53 766.996C1486.9 776.647 1464.14 793.4 1432.69 804.396C1401.23 815.391 1373.02 816.515 1369.62 806.863C1366.22 797.212 1389.03 780.486 1420.48 769.518C1451.94 758.551 1480.15 757.372 1483.53 766.996Z" fill="#242993"/>
<path d="M1403.92 731.899L1404.31 722.001L1406.61 716.188L1408.09 720.987L1403.92 731.899Z" fill="#DD821F"/>
<path d="M1508.04 733.874L1508.43 724.14C1508.43 724.14 1500.2 732.366 1500.2 732.557C1500.2 732.749 1508.04 733.874 1508.04 733.874Z" fill="#FFD85A"/>
<path d="M1455.26 762.664C1426.52 761.978 1403.68 747.364 1404.31 721.974C1404.94 696.584 1428.71 676.595 1457.48 677.28C1486.24 677.966 1509.03 699.216 1508.43 724.469C1507.82 749.722 1484.02 763.377 1455.26 762.664Z" fill="#FFD85A"/>
<path d="M1508 734.396C1508.61 709.008 1485.8 687.87 1457.05 687.182C1428.29 686.495 1404.49 706.518 1403.89 731.906C1403.28 757.294 1426.1 778.432 1454.85 779.12C1483.6 779.807 1507.4 759.784 1508 734.396Z" fill="#FFD85A"/>
<path d="M1419.63 700.038C1414.9 703.929 1411.05 708.782 1408.34 714.275C1405.62 719.768 1404.11 725.776 1403.89 731.899C1403.29 757.289 1426.11 778.512 1454.87 779.115C1468.23 779.562 1481.3 775.181 1491.7 766.776L1419.63 700.038Z" fill="#DD821F"/>
<path d="M1505.7 734.341C1506.28 710.088 1484.48 689.895 1457 689.238C1429.52 688.581 1406.77 707.709 1406.19 731.961C1405.61 756.213 1427.42 776.407 1454.9 777.064C1482.38 777.721 1505.12 758.593 1505.7 734.341Z" fill="#F9BF30"/>
<path d="M1495.89 734.079C1496.35 714.61 1478.85 698.4 1456.79 697.873C1434.73 697.345 1416.47 712.7 1416 732.168C1415.54 751.637 1433.04 767.847 1455.1 768.374C1477.16 768.902 1495.42 753.547 1495.89 734.079Z" fill="#F2B42A"/>
<path d="M1495.89 734.12C1495.89 733.298 1495.89 732.503 1495.89 731.707C1494.06 750.023 1476.4 764.117 1455.26 763.596C1434.11 763.075 1417.19 748.186 1416.23 729.816C1416.14 730.607 1416.08 731.404 1416.07 732.201C1415.6 751.669 1433.1 767.846 1455.15 768.394C1477.19 768.943 1495.43 753.588 1495.89 734.12Z" fill="#FFD85A"/>
<path d="M1463.62 736.122L1455.39 728.527C1447.49 730.337 1432.8 733.682 1421.06 736.424C1422.65 740.916 1425.19 745.014 1428.5 748.443C1431.81 751.872 1435.82 754.552 1440.26 756.302L1463.62 736.122Z" fill="#FFD85A"/>
<path d="M1450.73 758.989C1455.85 759.642 1461.05 759.275 1466.03 757.91C1471.01 756.546 1475.67 754.21 1479.74 751.038L1466.36 738.672L1450.73 758.989Z" fill="#FFD85A"/>
<path d="M1446.64 720.411L1431.23 706.098C1426.02 710.65 1421.39 715.64 1420.27 722.33L1446.64 720.411Z" fill="#FFD85A"/>
<path d="M1454.73 702.122C1476.67 702.643 1494.28 718.848 1493.81 738.315C1493.72 742.175 1492.92 745.986 1491.45 749.557C1494.22 744.874 1495.75 739.56 1495.89 734.12C1496.36 714.653 1478.87 698.476 1456.82 697.9C1439.24 697.488 1424.08 707.167 1418.43 720.959C1422.28 714.896 1427.67 709.96 1434.04 706.652C1440.42 703.344 1447.56 701.781 1454.73 702.122Z" fill="#DD821F"/>
<path d="M1404.31 721.974C1403.94 725.331 1404.09 728.724 1404.75 732.037C1405.9 728.308 1408.36 717.175 1408.36 717.175L1412.34 708.319L1415.63 705.577L1421.12 701.492L1421.58 688.714C1416.41 692.625 1412.18 697.64 1409.19 703.393C1406.2 709.147 1404.53 715.494 1404.31 721.974V721.974Z" fill="#DD821F"/>
<path d="M1505.05 720.685L1505.27 718.08C1505.27 717.903 1505.34 717.733 1505.46 717.605C1505.59 717.477 1505.75 717.402 1505.93 717.395H1506.12C1506.21 717.398 1506.29 717.419 1506.37 717.455C1506.45 717.492 1506.52 717.543 1506.58 717.607C1506.64 717.67 1506.68 717.745 1506.71 717.826C1506.74 717.907 1506.76 717.994 1506.75 718.08L1506.53 720.685C1506.54 720.772 1506.52 720.86 1506.49 720.941C1506.46 721.023 1506.41 721.097 1506.35 721.159C1506.29 721.221 1506.21 721.269 1506.13 721.301C1506.05 721.333 1505.96 721.347 1505.88 721.343H1505.68C1505.51 721.336 1505.35 721.264 1505.24 721.141C1505.12 721.018 1505.05 720.855 1505.05 720.685Z" fill="#DD821F"/>
<path d="M1500.5 710.65L1500.75 705.961C1500.75 705.759 1500.84 705.568 1500.98 705.426C1501.12 705.283 1501.31 705.2 1501.52 705.193H1501.95C1502.05 705.197 1502.15 705.22 1502.24 705.262C1502.33 705.304 1502.41 705.365 1502.48 705.439C1502.55 705.513 1502.6 705.6 1502.63 705.694C1502.66 705.789 1502.68 705.889 1502.67 705.988L1502.39 710.677C1502.4 710.776 1502.38 710.876 1502.35 710.969C1502.31 711.062 1502.26 711.147 1502.19 711.218C1502.12 711.29 1502.03 711.347 1501.94 711.386C1501.85 711.425 1501.75 711.445 1501.65 711.445H1501.19C1501.09 711.442 1500.99 711.418 1500.9 711.375C1500.81 711.333 1500.73 711.272 1500.67 711.198C1500.6 711.123 1500.56 711.036 1500.53 710.941C1500.5 710.847 1500.49 710.748 1500.5 710.65V710.65Z" fill="#DD821F"/>
<path d="M1494.14 701.93L1494.41 697.351C1494.41 697.126 1494.5 696.91 1494.66 696.75C1494.82 696.591 1495.04 696.501 1495.26 696.501H1496.06C1496.28 696.515 1496.49 696.615 1496.63 696.779C1496.78 696.943 1496.86 697.158 1496.85 697.379L1496.58 701.958C1496.58 702.178 1496.49 702.391 1496.34 702.549C1496.19 702.708 1495.98 702.801 1495.76 702.808H1494.96C1494.85 702.804 1494.74 702.779 1494.64 702.733C1494.54 702.687 1494.45 702.621 1494.37 702.539C1494.29 702.458 1494.23 702.362 1494.19 702.258C1494.15 702.153 1494.14 702.042 1494.14 701.93Z" fill="#DD821F"/>
<path d="M1484.65 694.856L1484.95 689.372C1484.95 689.261 1484.97 689.149 1485.01 689.045C1485.05 688.94 1485.11 688.845 1485.18 688.763C1485.26 688.682 1485.35 688.616 1485.45 688.57C1485.55 688.524 1485.66 688.498 1485.78 688.495H1486.57C1486.8 688.509 1487.01 688.611 1487.17 688.78C1487.32 688.949 1487.4 689.171 1487.39 689.4L1487.09 694.884C1487.1 694.996 1487.08 695.108 1487.04 695.213C1486.99 695.318 1486.93 695.413 1486.85 695.493C1486.77 695.573 1486.68 695.635 1486.57 695.677C1486.47 695.718 1486.35 695.737 1486.24 695.734H1485.45C1485.23 695.713 1485.03 695.612 1484.88 695.449C1484.73 695.287 1484.65 695.075 1484.65 694.856V694.856Z" fill="#DD821F"/>
<path d="M1475.11 690.222L1475.41 683.861C1475.41 683.748 1475.43 683.636 1475.47 683.531C1475.51 683.426 1475.57 683.331 1475.65 683.251C1475.73 683.172 1475.83 683.109 1475.93 683.068C1476.04 683.027 1476.15 683.007 1476.26 683.011H1477.03C1477.25 683.032 1477.46 683.137 1477.61 683.305C1477.75 683.474 1477.83 683.692 1477.82 683.916L1477.52 690.277C1477.52 690.503 1477.43 690.719 1477.27 690.878C1477.11 691.038 1476.9 691.127 1476.67 691.127H1475.88C1475.66 691.106 1475.45 691 1475.31 690.831C1475.16 690.662 1475.09 690.443 1475.11 690.222V690.222Z" fill="#DD821F"/>
<path d="M1465.51 687.398L1465.81 681.284C1465.81 681.171 1465.83 681.059 1465.87 680.954C1465.91 680.849 1465.97 680.754 1466.05 680.674C1466.13 680.595 1466.23 680.532 1466.33 680.491C1466.44 680.449 1466.55 680.43 1466.66 680.434H1467.46C1467.68 680.455 1467.89 680.56 1468.04 680.728C1468.18 680.896 1468.26 681.115 1468.25 681.339L1467.95 687.453C1467.95 687.678 1467.86 687.895 1467.7 688.054C1467.54 688.214 1467.33 688.303 1467.1 688.303H1466.31C1466.19 688.296 1466.09 688.267 1465.99 688.218C1465.88 688.168 1465.79 688.1 1465.72 688.016C1465.65 687.932 1465.59 687.834 1465.55 687.728C1465.52 687.622 1465.5 687.51 1465.51 687.398Z" fill="#DD821F"/>
<path d="M1455.86 686.439L1456.16 680.214C1456.17 679.993 1456.27 679.785 1456.42 679.628C1456.58 679.471 1456.79 679.377 1457.01 679.364H1457.83C1457.94 679.368 1458.05 679.394 1458.15 679.44C1458.25 679.486 1458.34 679.552 1458.42 679.634C1458.49 679.716 1458.55 679.812 1458.59 679.916C1458.62 680.021 1458.64 680.132 1458.63 680.242L1458.33 686.466C1458.33 686.687 1458.24 686.899 1458.09 687.058C1457.93 687.216 1457.73 687.309 1457.5 687.316H1456.71C1456.6 687.316 1456.48 687.293 1456.38 687.249C1456.27 687.204 1456.18 687.139 1456.1 687.057C1456.02 686.976 1455.96 686.879 1455.92 686.772C1455.87 686.666 1455.86 686.552 1455.86 686.439Z" fill="#DD821F"/>
<path d="M1446.21 686.63L1446.51 680.818C1446.5 680.707 1446.52 680.597 1446.56 680.494C1446.6 680.391 1446.66 680.297 1446.74 680.218C1446.82 680.139 1446.91 680.076 1447.01 680.033C1447.11 679.99 1447.22 679.967 1447.33 679.968H1448.13C1448.24 679.975 1448.35 680.004 1448.45 680.053C1448.55 680.102 1448.64 680.171 1448.71 680.255C1448.79 680.339 1448.84 680.437 1448.88 680.543C1448.91 680.649 1448.93 680.761 1448.92 680.872L1448.65 686.685C1448.65 686.913 1448.56 687.132 1448.4 687.296C1448.24 687.46 1448.03 687.555 1447.8 687.563H1447C1446.89 687.556 1446.78 687.526 1446.67 687.475C1446.57 687.424 1446.48 687.353 1446.41 687.266C1446.33 687.179 1446.28 687.078 1446.24 686.968C1446.21 686.859 1446.2 686.744 1446.21 686.63V686.63Z" fill="#DD821F"/>
<path d="M1436.5 688.742L1436.77 683.121C1436.77 682.895 1436.86 682.679 1437.02 682.52C1437.18 682.36 1437.4 682.271 1437.62 682.271H1438.42C1438.64 682.292 1438.85 682.397 1439 682.565C1439.14 682.733 1439.22 682.952 1439.21 683.176L1438.91 688.824C1438.91 689.045 1438.83 689.257 1438.67 689.415C1438.52 689.574 1438.31 689.667 1438.09 689.674H1437.29C1437.18 689.671 1437.07 689.644 1436.96 689.594C1436.86 689.545 1436.76 689.473 1436.69 689.385C1436.61 689.297 1436.56 689.195 1436.53 689.084C1436.49 688.973 1436.48 688.856 1436.5 688.742V688.742Z" fill="#DD821F"/>
<path d="M1426.71 693.485L1427.01 687.398C1427.01 687.285 1427.03 687.173 1427.07 687.068C1427.11 686.964 1427.17 686.868 1427.25 686.789C1427.33 686.709 1427.43 686.646 1427.53 686.605C1427.64 686.564 1427.75 686.544 1427.86 686.548H1428.66C1428.88 686.569 1429.09 686.674 1429.23 686.843C1429.38 687.011 1429.46 687.229 1429.45 687.453L1429.15 693.567C1429.14 693.791 1429.05 694.003 1428.89 694.161C1428.74 694.319 1428.52 694.41 1428.3 694.417H1427.51C1427.39 694.41 1427.28 694.381 1427.18 694.33C1427.07 694.279 1426.98 694.208 1426.91 694.12C1426.83 694.033 1426.78 693.932 1426.74 693.823C1426.71 693.714 1426.7 693.599 1426.71 693.485V693.485Z" fill="#DD821F"/>
<path opacity="0.5" d="M1048.24 802.586L940.034 864.992L859.031 816.131L965.481 754.794L1048.24 802.586Z" fill="#242993"/>
</g>
<defs>
<linearGradient id="paint0_linear_68_494" x1="1703.2" y1="-114.501" x2="-322.397" y2="1509.95" gradientUnits="userSpaceOnUse">
<stop stop-color="#4482CC"/>
<stop offset="0.04" stop-color="#447ECC"/>
<stop offset="0.47" stop-color="#4553C7"/>
<stop offset="0.6" stop-color="#3B44BC"/>
<stop offset="0.84" stop-color="#2B2DAB"/>
<stop offset="1" stop-color="#2525A5"/>
</linearGradient>
<linearGradient id="paint1_linear_68_494" x1="4.49707" y1="369.857" x2="1553.01" y2="369.857" gradientUnits="userSpaceOnUse">
<stop stop-color="#2525A5"/>
<stop offset="1" stop-color="#2525A5"/>
</linearGradient>
<linearGradient id="paint2_linear_68_494" x1="1836.8" y1="-16.752" x2="1644.37" y2="137.579" gradientUnits="userSpaceOnUse">
<stop stop-color="#BCD5FF"/>
<stop offset="0.15" stop-color="#A3BEFF"/>
<stop offset="0.39" stop-color="#82A0FF"/>
<stop offset="0.61" stop-color="#6A8AFF"/>
<stop offset="0.82" stop-color="#5C7DFF"/>
<stop offset="1" stop-color="#5778FF"/>
</linearGradient>
<linearGradient id="paint3_linear_68_494" x1="1875.06" y1="32.3764" x2="1606.28" y2="-50.4874" gradientUnits="userSpaceOnUse">
<stop stop-color="#C0D6FF"/>
<stop offset="0.3" stop-color="#C5DBFF"/>
<stop offset="0.65" stop-color="#D3E9FF"/>
<stop offset="1" stop-color="#E9FFFF"/>
</linearGradient>
<linearGradient id="paint4_linear_68_494" x1="526.327" y1="651.616" x2="333.896" y2="805.919" gradientUnits="userSpaceOnUse">
<stop stop-color="#BCD5FF"/>
<stop offset="0.15" stop-color="#A3BEFF"/>
<stop offset="0.39" stop-color="#82A0FF"/>
<stop offset="0.61" stop-color="#6A8AFF"/>
<stop offset="0.82" stop-color="#5C7DFF"/>
<stop offset="1" stop-color="#5778FF"/>
</linearGradient>
<linearGradient id="paint5_linear_68_494" x1="564.269" y1="703.93" x2="295.446" y2="621.096" gradientUnits="userSpaceOnUse">
<stop stop-color="#C0D6FF"/>
<stop offset="0.3" stop-color="#C5DBFF"/>
<stop offset="0.65" stop-color="#D3E9FF"/>
<stop offset="1" stop-color="#E9FFFF"/>
</linearGradient>
<linearGradient id="paint6_linear_68_494" x1="1864.58" y1="391.135" x2="1672.17" y2="545.438" gradientUnits="userSpaceOnUse">
<stop stop-color="#BCD5FF"/>
<stop offset="0.15" stop-color="#A3BEFF"/>
<stop offset="0.39" stop-color="#82A0FF"/>
<stop offset="0.61" stop-color="#6A8AFF"/>
<stop offset="0.82" stop-color="#5C7DFF"/>
<stop offset="1" stop-color="#5778FF"/>
</linearGradient>
<linearGradient id="paint7_linear_68_494" x1="1904.57" y1="441.14" x2="1635.79" y2="358.277" gradientUnits="userSpaceOnUse">
<stop stop-color="#C0D6FF"/>
<stop offset="0.3" stop-color="#C5DBFF"/>
<stop offset="0.65" stop-color="#D3E9FF"/>
<stop offset="1" stop-color="#E9FFFF"/>
</linearGradient>
<linearGradient id="paint8_linear_68_494" x1="1142.4" y1="403.062" x2="950.001" y2="557.365" gradientUnits="userSpaceOnUse">
<stop stop-color="#BCD5FF"/>
<stop offset="0.15" stop-color="#A3BEFF"/>
<stop offset="0.39" stop-color="#82A0FF"/>
<stop offset="0.61" stop-color="#6A8AFF"/>
<stop offset="0.82" stop-color="#5C7DFF"/>
<stop offset="1" stop-color="#5778FF"/>
</linearGradient>
<linearGradient id="paint9_linear_68_494" x1="1180.78" y1="454.028" x2="911.954" y2="371.157" gradientUnits="userSpaceOnUse">
<stop stop-color="#C0D6FF"/>
<stop offset="0.3" stop-color="#C5DBFF"/>
<stop offset="0.65" stop-color="#D3E9FF"/>
<stop offset="1" stop-color="#E9FFFF"/>
</linearGradient>
<linearGradient id="paint10_linear_68_494" x1="1442.75" y1="277.041" x2="1484.16" y2="348.442" gradientUnits="userSpaceOnUse">
<stop stop-color="#C0D6FF"/>
<stop offset="0.5" stop-color="#D2E8FF"/>
<stop offset="1" stop-color="#E9FFFF"/>
</linearGradient>
<linearGradient id="paint11_linear_68_494" x1="1490.35" y1="526.342" x2="1572.99" y2="526.342" gradientUnits="userSpaceOnUse">
<stop stop-color="#C0D6FF"/>
<stop offset="0.3" stop-color="#C5DBFF"/>
<stop offset="0.65" stop-color="#D3E9FF"/>
<stop offset="1" stop-color="#E9FFFF"/>
</linearGradient>
<linearGradient id="paint12_linear_68_494" x1="1352.63" y1="445.629" x2="1476.78" y2="445.629" gradientUnits="userSpaceOnUse">
<stop stop-color="#5778FF"/>
<stop offset="0.18" stop-color="#5C7DFF"/>
<stop offset="0.39" stop-color="#6A8AFF"/>
<stop offset="0.61" stop-color="#82A0FF"/>
<stop offset="0.85" stop-color="#A3BEFF"/>
<stop offset="1" stop-color="#BCD5FF"/>
</linearGradient>
<linearGradient id="paint13_linear_68_494" x1="1335.07" y1="420.611" x2="1376.48" y2="492.012" gradientUnits="userSpaceOnUse">
<stop stop-color="#C0D6FF"/>
<stop offset="0.5" stop-color="#D2E8FF"/>
<stop offset="1" stop-color="#E9FFFF"/>
</linearGradient>
<linearGradient id="paint14_linear_68_494" x1="1381.85" y1="628.96" x2="1464.49" y2="628.96" gradientUnits="userSpaceOnUse">
<stop stop-color="#C0D6FF"/>
<stop offset="0.3" stop-color="#C5DBFF"/>
<stop offset="0.65" stop-color="#D3E9FF"/>
<stop offset="1" stop-color="#E9FFFF"/>
</linearGradient>
<linearGradient id="paint15_linear_68_494" x1="1244.13" y1="547.749" x2="1368.28" y2="547.749" gradientUnits="userSpaceOnUse">
<stop stop-color="#5778FF"/>
<stop offset="0.18" stop-color="#5C7DFF"/>
<stop offset="0.39" stop-color="#6A8AFF"/>
<stop offset="0.61" stop-color="#82A0FF"/>
<stop offset="0.85" stop-color="#A3BEFF"/>
<stop offset="1" stop-color="#BCD5FF"/>
</linearGradient>
<linearGradient id="paint16_linear_68_494" x1="1227.15" y1="507.303" x2="1268.55" y2="578.705" gradientUnits="userSpaceOnUse">
<stop stop-color="#C0D6FF"/>
<stop offset="0.5" stop-color="#D2E8FF"/>
<stop offset="1" stop-color="#E9FFFF"/>
</linearGradient>
<linearGradient id="paint17_linear_68_494" x1="1273.35" y1="703.325" x2="1355.99" y2="703.325" gradientUnits="userSpaceOnUse">
<stop stop-color="#C0D6FF"/>
<stop offset="0.3" stop-color="#C5DBFF"/>
<stop offset="0.65" stop-color="#D3E9FF"/>
<stop offset="1" stop-color="#E9FFFF"/>
</linearGradient>
<linearGradient id="paint18_linear_68_494" x1="1135.63" y1="621.616" x2="1259.78" y2="621.616" gradientUnits="userSpaceOnUse">
<stop stop-color="#5778FF"/>
<stop offset="0.18" stop-color="#5C7DFF"/>
<stop offset="0.39" stop-color="#6A8AFF"/>
<stop offset="0.61" stop-color="#82A0FF"/>
<stop offset="0.85" stop-color="#A3BEFF"/>
<stop offset="1" stop-color="#BCD5FF"/>
</linearGradient>
<linearGradient id="paint19_linear_68_494" x1="1119.47" y1="647.456" x2="1160.88" y2="718.857" gradientUnits="userSpaceOnUse">
<stop stop-color="#C0D6FF"/>
<stop offset="0.5" stop-color="#D2E8FF"/>
<stop offset="1" stop-color="#E9FFFF"/>
</linearGradient>
<linearGradient id="paint20_linear_68_494" x1="1164.83" y1="804.285" x2="1247.49" y2="804.285" gradientUnits="userSpaceOnUse">
<stop stop-color="#C0D6FF"/>
<stop offset="0.3" stop-color="#C5DBFF"/>
<stop offset="0.65" stop-color="#D3E9FF"/>
<stop offset="1" stop-color="#E9FFFF"/>
</linearGradient>
<linearGradient id="paint21_linear_68_494" x1="1027.11" y1="722.05" x2="1151.28" y2="722.05" gradientUnits="userSpaceOnUse">
<stop stop-color="#5778FF"/>
<stop offset="0.18" stop-color="#5C7DFF"/>
<stop offset="0.39" stop-color="#6A8AFF"/>
<stop offset="0.61" stop-color="#82A0FF"/>
<stop offset="0.85" stop-color="#A3BEFF"/>
<stop offset="1" stop-color="#BCD5FF"/>
</linearGradient>
<linearGradient id="paint22_linear_68_494" x1="1011.38" y1="691.63" x2="1052.79" y2="763.031" gradientUnits="userSpaceOnUse">
<stop stop-color="#C0D6FF"/>
<stop offset="0.5" stop-color="#D2E8FF"/>
<stop offset="1" stop-color="#E9FFFF"/>
</linearGradient>
<linearGradient id="paint23_linear_68_494" x1="1056.33" y1="857.523" x2="1138.97" y2="857.523" gradientUnits="userSpaceOnUse">
<stop stop-color="#C0D6FF"/>
<stop offset="0.3" stop-color="#C5DBFF"/>
<stop offset="0.65" stop-color="#D3E9FF"/>
<stop offset="1" stop-color="#E9FFFF"/>
</linearGradient>
<linearGradient id="paint24_linear_68_494" x1="918.608" y1="774.791" x2="1042.76" y2="774.791" gradientUnits="userSpaceOnUse">
<stop stop-color="#5778FF"/>
<stop offset="0.18" stop-color="#5C7DFF"/>
<stop offset="0.39" stop-color="#6A8AFF"/>
<stop offset="0.61" stop-color="#82A0FF"/>
<stop offset="0.85" stop-color="#A3BEFF"/>
<stop offset="1" stop-color="#BCD5FF"/>
</linearGradient>
<linearGradient id="paint25_linear_68_494" x1="1442.46" y1="205.259" x2="1483.87" y2="276.66" gradientUnits="userSpaceOnUse">
<stop stop-color="#C0D6FF"/>
<stop offset="0.5" stop-color="#D2E8FF"/>
<stop offset="1" stop-color="#E9FFFF"/>
</linearGradient>
<linearGradient id="paint26_linear_68_494" x1="1490.35" y1="411.44" x2="1572.99" y2="411.44" gradientUnits="userSpaceOnUse">
<stop stop-color="#C0D6FF"/>
<stop offset="0.3" stop-color="#C5DBFF"/>
<stop offset="0.65" stop-color="#D3E9FF"/>
<stop offset="1" stop-color="#E9FFFF"/>
</linearGradient>
<linearGradient id="paint27_linear_68_494" x1="1352.63" y1="330.758" x2="1476.78" y2="330.758" gradientUnits="userSpaceOnUse">
<stop stop-color="#5778FF"/>
<stop offset="0.18" stop-color="#5C7DFF"/>
<stop offset="0.39" stop-color="#6A8AFF"/>
<stop offset="0.61" stop-color="#82A0FF"/>
<stop offset="0.85" stop-color="#A3BEFF"/>
<stop offset="1" stop-color="#BCD5FF"/>
</linearGradient>
<linearGradient id="paint28_linear_68_494" x1="1334.78" y1="348.829" x2="1376.19" y2="420.23" gradientUnits="userSpaceOnUse">
<stop stop-color="#C0D6FF"/>
<stop offset="0.5" stop-color="#D2E8FF"/>
<stop offset="1" stop-color="#E9FFFF"/>
</linearGradient>
<linearGradient id="paint29_linear_68_494" x1="1349.88" y1="357.507" x2="1376.26" y2="402.978" gradientUnits="userSpaceOnUse">
<stop stop-color="#5778FF"/>
<stop offset="0.18" stop-color="#5C7DFF"/>
<stop offset="0.39" stop-color="#6A8AFF"/>
<stop offset="0.61" stop-color="#82A0FF"/>
<stop offset="0.85" stop-color="#A3BEFF"/>
<stop offset="1" stop-color="#BCD5FF"/>
</linearGradient>
<linearGradient id="paint30_linear_68_494" x1="1381.85" y1="514.089" x2="1464.49" y2="514.089" gradientUnits="userSpaceOnUse">
<stop stop-color="#C0D6FF"/>
<stop offset="0.3" stop-color="#C5DBFF"/>
<stop offset="0.65" stop-color="#D3E9FF"/>
<stop offset="1" stop-color="#E9FFFF"/>
</linearGradient>
<linearGradient id="paint31_linear_68_494" x1="1244.13" y1="432.878" x2="1368.28" y2="432.878" gradientUnits="userSpaceOnUse">
<stop stop-color="#5778FF"/>
<stop offset="0.18" stop-color="#5C7DFF"/>
<stop offset="0.39" stop-color="#6A8AFF"/>
<stop offset="0.61" stop-color="#82A0FF"/>
<stop offset="0.85" stop-color="#A3BEFF"/>
<stop offset="1" stop-color="#BCD5FF"/>
</linearGradient>
<linearGradient id="paint32_linear_68_494" x1="1334.48" y1="277.165" x2="1375.9" y2="348.587" gradientUnits="userSpaceOnUse">
<stop stop-color="#C0D6FF"/>
<stop offset="0.5" stop-color="#D2E8FF"/>
<stop offset="1" stop-color="#E9FFFF"/>
</linearGradient>
<linearGradient id="paint33_linear_68_494" x1="1381.85" y1="361.789" x2="1464.49" y2="361.789" gradientUnits="userSpaceOnUse">
<stop stop-color="#C0D6FF"/>
<stop offset="0.3" stop-color="#C5DBFF"/>
<stop offset="0.65" stop-color="#D3E9FF"/>
<stop offset="1" stop-color="#E9FFFF"/>
</linearGradient>
<linearGradient id="paint34_linear_68_494" x1="1244.13" y1="280.578" x2="1368.28" y2="280.578" gradientUnits="userSpaceOnUse">
<stop stop-color="#5778FF"/>
<stop offset="0.18" stop-color="#5C7DFF"/>
<stop offset="0.39" stop-color="#6A8AFF"/>
<stop offset="0.61" stop-color="#82A0FF"/>
<stop offset="0.85" stop-color="#A3BEFF"/>
<stop offset="1" stop-color="#BCD5FF"/>
</linearGradient>
<linearGradient id="paint35_linear_68_494" x1="1226.86" y1="435.521" x2="1268.28" y2="506.943" gradientUnits="userSpaceOnUse">
<stop stop-color="#C0D6FF"/>
<stop offset="0.5" stop-color="#D2E8FF"/>
<stop offset="1" stop-color="#E9FFFF"/>
</linearGradient>
<linearGradient id="paint36_linear_68_494" x1="1273.35" y1="588.454" x2="1355.99" y2="588.454" gradientUnits="userSpaceOnUse">
<stop stop-color="#C0D6FF"/>
<stop offset="0.3" stop-color="#C5DBFF"/>
<stop offset="0.65" stop-color="#D3E9FF"/>
<stop offset="1" stop-color="#E9FFFF"/>
</linearGradient>
<linearGradient id="paint37_linear_68_494" x1="1135.63" y1="506.745" x2="1259.78" y2="506.745" gradientUnits="userSpaceOnUse">
<stop stop-color="#5778FF"/>
<stop offset="0.18" stop-color="#5C7DFF"/>
<stop offset="0.39" stop-color="#6A8AFF"/>
<stop offset="0.61" stop-color="#82A0FF"/>
<stop offset="0.85" stop-color="#A3BEFF"/>
<stop offset="1" stop-color="#BCD5FF"/>
</linearGradient>
<linearGradient id="paint38_linear_68_494" x1="1119.18" y1="575.674" x2="1160.59" y2="647.075" gradientUnits="userSpaceOnUse">
<stop stop-color="#C0D6FF"/>
<stop offset="0.5" stop-color="#D2E8FF"/>
<stop offset="1" stop-color="#E9FFFF"/>
</linearGradient>
<linearGradient id="paint39_linear_68_494" x1="1164.83" y1="689.414" x2="1247.49" y2="689.414" gradientUnits="userSpaceOnUse">
<stop stop-color="#C0D6FF"/>
<stop offset="0.3" stop-color="#C5DBFF"/>
<stop offset="0.65" stop-color="#D3E9FF"/>
<stop offset="1" stop-color="#E9FFFF"/>
</linearGradient>
<linearGradient id="paint40_linear_68_494" x1="1027.11" y1="607.179" x2="1151.28" y2="607.179" gradientUnits="userSpaceOnUse">
<stop stop-color="#5778FF"/>
<stop offset="0.18" stop-color="#5C7DFF"/>
<stop offset="0.39" stop-color="#6A8AFF"/>
<stop offset="0.61" stop-color="#82A0FF"/>
<stop offset="0.85" stop-color="#A3BEFF"/>
<stop offset="1" stop-color="#BCD5FF"/>
</linearGradient>
<linearGradient id="paint41_linear_68_494" x1="1011.1" y1="619.847" x2="1052.51" y2="691.249" gradientUnits="userSpaceOnUse">
<stop stop-color="#C0D6FF"/>
<stop offset="0.5" stop-color="#D2E8FF"/>
<stop offset="1" stop-color="#E9FFFF"/>
</linearGradient>
<linearGradient id="paint42_linear_68_494" x1="1056.33" y1="742.652" x2="1138.97" y2="742.652" gradientUnits="userSpaceOnUse">
<stop stop-color="#C0D6FF"/>
<stop offset="0.3" stop-color="#C5DBFF"/>
<stop offset="0.65" stop-color="#D3E9FF"/>
<stop offset="1" stop-color="#E9FFFF"/>
</linearGradient>
<linearGradient id="paint43_linear_68_494" x1="918.608" y1="659.92" x2="1042.76" y2="659.92" gradientUnits="userSpaceOnUse">
<stop stop-color="#5778FF"/>
<stop offset="0.18" stop-color="#5C7DFF"/>
<stop offset="0.39" stop-color="#6A8AFF"/>
<stop offset="0.61" stop-color="#82A0FF"/>
<stop offset="0.85" stop-color="#A3BEFF"/>
<stop offset="1" stop-color="#BCD5FF"/>
</linearGradient>
<linearGradient id="paint44_linear_68_494" x1="1308.49" y1="328.356" x2="1283.01" y2="329.884" gradientUnits="userSpaceOnUse">
<stop stop-color="#5778FF"/>
<stop offset="0.07" stop-color="#5489FF"/>
<stop offset="0.28" stop-color="#4EB3FF"/>
<stop offset="0.48" stop-color="#49D4FF"/>
<stop offset="0.67" stop-color="#45ECFF"/>
<stop offset="0.85" stop-color="#43FAFF"/>
<stop offset="1" stop-color="#42FFFF"/>
</linearGradient>
<linearGradient id="paint45_linear_68_494" x1="1272.95" y1="338.771" x2="1219.62" y2="341.971" gradientUnits="userSpaceOnUse">
<stop stop-color="#5778FF"/>
<stop offset="0.07" stop-color="#5489FF"/>
<stop offset="0.28" stop-color="#4EB3FF"/>
<stop offset="0.48" stop-color="#49D4FF"/>
<stop offset="0.67" stop-color="#45ECFF"/>
<stop offset="0.85" stop-color="#43FAFF"/>
<stop offset="1" stop-color="#42FFFF"/>
</linearGradient>
<linearGradient id="paint46_linear_68_494" x1="1293.41" y1="269.712" x2="1206.68" y2="274.916" gradientUnits="userSpaceOnUse">
<stop stop-color="#5778FF"/>
<stop offset="0.07" stop-color="#5489FF"/>
<stop offset="0.28" stop-color="#4EB3FF"/>
<stop offset="0.48" stop-color="#49D4FF"/>
<stop offset="0.67" stop-color="#45ECFF"/>
<stop offset="0.85" stop-color="#43FAFF"/>
<stop offset="1" stop-color="#42FFFF"/>
</linearGradient>
</defs>
</svg>
