<svg width="20" height="20" viewBox="0 0 20 20" fill="none" xmlns="http://www.w3.org/2000/svg">
<path d="M12.8102 4.35997L11.0402 6.13997C10.3618 5.95793 9.64744 5.95774 8.96895 6.13941C8.29046 6.32108 7.67176 6.67821 7.1751 7.17487C6.67843 7.67154 6.3213 8.29023 6.13963 8.96872C5.95796 9.64721 5.95816 10.3616 6.1402 11.04L3.3802 13.79C2.0602 12.79 0.960195 11.49 0.200195 9.99997C1.34112 7.76281 3.21318 5.98338 5.50532 4.95738C7.79746 3.93137 10.3717 3.72056 12.8002 4.35997H12.8102ZM16.6102 6.20997C17.9402 7.20997 19.0402 8.50997 19.8102 9.99997C18.6685 12.2413 16.7932 14.0236 14.4968 15.0499C12.2003 16.0762 9.62155 16.2844 7.1902 15.64L8.9602 13.86C9.63859 14.042 10.353 14.0422 11.0314 13.8605C11.7099 13.6789 12.3286 13.3217 12.8253 12.8251C13.322 12.3284 13.6791 11.7097 13.8608 11.0312C14.0424 10.3527 14.0422 9.63836 13.8602 8.95997L16.6202 6.20997H16.6102ZM16.3602 2.21997L17.7802 3.63997L3.6402 17.78L2.2202 16.36L16.3602 2.21997V2.21997Z" fill="#202020"/>
</svg>
