<svg width="20" height="20" viewBox="0 0 20 20" fill="none" xmlns="http://www.w3.org/2000/svg">
<path d="M0.200195 10.0001C1.12139 8.19311 2.52424 6.67601 4.25372 5.61644C5.98319 4.55687 7.97195 3.99609 10.0002 3.99609C12.0284 3.99609 14.0172 4.55687 15.7467 5.61644C17.4762 6.67601 18.879 8.19311 19.8002 10.0001C18.879 11.8071 17.4762 13.3242 15.7467 14.3838C14.0172 15.4433 12.0284 16.0041 10.0002 16.0041C7.97195 16.0041 5.98319 15.4433 4.25372 14.3838C2.52424 13.3242 1.12139 11.8071 0.200195 10.0001V10.0001ZM10.0002 14.0001C11.0611 14.0001 12.0785 13.5787 12.8286 12.8285C13.5788 12.0784 14.0002 11.061 14.0002 10.0001C14.0002 8.93923 13.5788 7.92181 12.8286 7.17167C12.0785 6.42152 11.0611 6.0001 10.0002 6.0001C8.93933 6.0001 7.92191 6.42152 7.17177 7.17167C6.42162 7.92181 6.0002 8.93923 6.0002 10.0001C6.0002 11.061 6.42162 12.0784 7.17177 12.8285C7.92191 13.5787 8.93933 14.0001 10.0002 14.0001V14.0001ZM10.0002 12.0001C9.46976 12.0001 8.96106 11.7894 8.58598 11.4143C8.21091 11.0392 8.0002 10.5305 8.0002 10.0001C8.0002 9.46966 8.21091 8.96095 8.58598 8.58588C8.96106 8.21081 9.46976 8.0001 10.0002 8.0001C10.5306 8.0001 11.0393 8.21081 11.4144 8.58588C11.7895 8.96095 12.0002 9.46966 12.0002 10.0001C12.0002 10.5305 11.7895 11.0392 11.4144 11.4143C11.0393 11.7894 10.5306 12.0001 10.0002 12.0001Z" fill="#202020"/>
</svg>
